<?xml version="1.0" encoding="utf-8" standalone="no"?>
<!DOCTYPE svg PUBLIC "-//W3C//DTD SVG 1.1//EN"
  "http://www.w3.org/Graphics/SVG/1.1/DTD/svg11.dtd">
<svg xmlns:xlink="http://www.w3.org/1999/xlink" width="576pt" height="432pt" viewBox="0 0 576 432" xmlns="http://www.w3.org/2000/svg" version="1.1">
 <metadata>
  <rdf:RDF xmlns:dc="http://purl.org/dc/elements/1.1/" xmlns:cc="http://creativecommons.org/ns#" xmlns:rdf="http://www.w3.org/1999/02/22-rdf-syntax-ns#">
   <cc:Work>
    <dc:type rdf:resource="http://purl.org/dc/dcmitype/StillImage"/>
    <dc:date>2026-02-06T18:11:58.302278</dc:date>
    <dc:format>image/svg+xml</dc:format>
    <dc:creator>
     <cc:Agent>
      <dc:title>Matplotlib v3.10.3, https://matplotlib.org/</dc:title>
     </cc:Agent>
    </dc:creator>
   </cc:Work>
  </rdf:RDF>
 </metadata>
 <defs>
  <style type="text/css">*{stroke-linejoin: round; stroke-linecap: butt}</style>
 </defs>
 <g id="figure_1">
  <g id="patch_1">
   <path d="M 0 432 
L 576 432 
L 576 0 
L 0 0 
z
" style="fill: #ffffff"/>
  </g>
  <g id="axes_1">
   <g id="patch_2">
    <path d="M 51.65 378.398929 
L 565.2 378.398929 
L 565.2 25.8 
L 51.65 25.8 
z
" style="fill: #ffffff"/>
   </g>
   <g id="patch_3">
    <path d="M 74.993182 378.398929 
L 87.526434 378.398929 
L 87.526434 132.424547 
L 74.993182 132.424547 
z
" clip-path="url(#pc96a7de3b1)" style="fill: #1f77b4"/>
   </g>
   <g id="patch_4">
    <path d="M 90.659747 378.398929 
L 103.192999 378.398929 
L 103.192999 132.424547 
L 90.659747 132.424547 
z
" clip-path="url(#pc96a7de3b1)" style="fill: #ff7f0e"/>
   </g>
   <g id="patch_5">
    <path d="M 106.326312 378.398929 
L 118.859564 378.398929 
L 118.859564 123.868916 
L 106.326312 123.868916 
z
" clip-path="url(#pc96a7de3b1)" style="fill: #ff7f0e"/>
   </g>
   <g id="patch_6">
    <path d="M 121.992877 378.398929 
L 134.526129 378.398929 
L 134.526129 149.535808 
L 121.992877 149.535808 
z
" clip-path="url(#pc96a7de3b1)" style="fill: #1f77b4"/>
   </g>
   <g id="patch_7">
    <path d="M 137.659442 378.398929 
L 150.192694 378.398929 
L 150.192694 104.618747 
L 137.659442 104.618747 
z
" clip-path="url(#pc96a7de3b1)" style="fill: #ff7f0e"/>
   </g>
   <g id="patch_8">
    <path d="M 153.326007 378.398929 
L 165.859259 378.398929 
L 165.859259 149.535808 
L 153.326007 149.535808 
z
" clip-path="url(#pc96a7de3b1)" style="fill: #ff7f0e"/>
   </g>
   <g id="patch_9">
    <path d="M 168.992572 378.398929 
L 181.525824 378.398929 
L 181.525824 102.47984 
L 168.992572 102.47984 
z
" clip-path="url(#pc96a7de3b1)" style="fill: #1f77b4"/>
   </g>
   <g id="patch_10">
    <path d="M 184.659137 378.398929 
L 197.192389 378.398929 
L 197.192389 46.868241 
L 184.659137 46.868241 
z
" clip-path="url(#pc96a7de3b1)" style="fill: #d62728"/>
   </g>
   <g id="patch_11">
    <path d="M 200.325702 378.398929 
L 212.858954 378.398929 
L 212.858954 49.007148 
L 200.325702 49.007148 
z
" clip-path="url(#pc96a7de3b1)" style="fill: #2ca02c"/>
   </g>
   <g id="patch_12">
    <path d="M 215.992267 378.398929 
L 228.525519 378.398929 
L 228.525519 42.590425 
L 215.992267 42.590425 
z
" clip-path="url(#pc96a7de3b1)" style="fill: #d62728"/>
   </g>
   <g id="patch_13">
    <path d="M 231.658832 378.398929 
L 244.192084 378.398929 
L 244.192084 102.47984 
L 231.658832 102.47984 
z
" clip-path="url(#pc96a7de3b1)" style="fill: #2ca02c"/>
   </g>
   <g id="patch_14">
    <path d="M 247.325397 378.398929 
L 259.858649 378.398929 
L 259.858649 136.702362 
L 247.325397 136.702362 
z
" clip-path="url(#pc96a7de3b1)" style="fill: #1f77b4"/>
   </g>
   <g id="patch_15">
    <path d="M 262.991962 378.398929 
L 275.525214 378.398929 
L 275.525214 153.813624 
L 262.991962 153.813624 
z
" clip-path="url(#pc96a7de3b1)" style="fill: #2ca02c"/>
   </g>
   <g id="patch_16">
    <path d="M 278.658527 378.398929 
L 291.191779 378.398929 
L 291.191779 96.063117 
L 278.658527 96.063117 
z
" clip-path="url(#pc96a7de3b1)" style="fill: #2ca02c"/>
   </g>
   <g id="patch_17">
    <path d="M 294.325092 378.398929 
L 306.858344 378.398929 
L 306.858344 70.396225 
L 294.325092 70.396225 
z
" clip-path="url(#pc96a7de3b1)" style="fill: #9467bd"/>
   </g>
   <g id="patch_18">
    <path d="M 309.991656 378.398929 
L 322.524908 378.398929 
L 322.524908 134.563455 
L 309.991656 134.563455 
z
" clip-path="url(#pc96a7de3b1)" style="fill: #9467bd"/>
   </g>
   <g id="patch_19">
    <path d="M 325.658221 378.398929 
L 338.191473 378.398929 
L 338.191473 83.229671 
L 325.658221 83.229671 
z
" clip-path="url(#pc96a7de3b1)" style="fill: #9467bd"/>
   </g>
   <g id="patch_20">
    <path d="M 341.324786 378.398929 
L 353.858038 378.398929 
L 353.858038 138.84127 
L 341.324786 138.84127 
z
" clip-path="url(#pc96a7de3b1)" style="fill: #9467bd"/>
   </g>
   <g id="patch_21">
    <path d="M 356.991351 378.398929 
L 369.524603 378.398929 
L 369.524603 74.67404 
L 356.991351 74.67404 
z
" clip-path="url(#pc96a7de3b1)" style="fill: #d62728"/>
   </g>
   <g id="patch_22">
    <path d="M 372.657916 378.398929 
L 385.191168 378.398929 
L 385.191168 151.674716 
L 372.657916 151.674716 
z
" clip-path="url(#pc96a7de3b1)" style="fill: #2ca02c"/>
   </g>
   <g id="patch_23">
    <path d="M 388.324481 378.398929 
L 400.857733 378.398929 
L 400.857733 134.563455 
L 388.324481 134.563455 
z
" clip-path="url(#pc96a7de3b1)" style="fill: #2ca02c"/>
   </g>
   <g id="patch_24">
    <path d="M 403.991046 378.398929 
L 416.524298 378.398929 
L 416.524298 66.118409 
L 403.991046 66.118409 
z
" clip-path="url(#pc96a7de3b1)" style="fill: #9467bd"/>
   </g>
   <g id="patch_25">
    <path d="M 419.657611 378.398929 
L 432.190863 378.398929 
L 432.190863 138.84127 
L 419.657611 138.84127 
z
" clip-path="url(#pc96a7de3b1)" style="fill: #1f77b4"/>
   </g>
   <g id="patch_26">
    <path d="M 435.324176 378.398929 
L 447.857428 378.398929 
L 447.857428 68.257317 
L 435.324176 68.257317 
z
" clip-path="url(#pc96a7de3b1)" style="fill: #d62728"/>
   </g>
   <g id="patch_27">
    <path d="M 450.990741 378.398929 
L 463.523993 378.398929 
L 463.523993 164.508162 
L 450.990741 164.508162 
z
" clip-path="url(#pc96a7de3b1)" style="fill: #ff7f0e"/>
   </g>
   <g id="patch_28">
    <path d="M 466.657306 378.398929 
L 479.190558 378.398929 
L 479.190558 126.007824 
L 466.657306 126.007824 
z
" clip-path="url(#pc96a7de3b1)" style="fill: #ff7f0e"/>
   </g>
   <g id="patch_29">
    <path d="M 482.323871 378.398929 
L 494.857123 378.398929 
L 494.857123 155.952531 
L 482.323871 155.952531 
z
" clip-path="url(#pc96a7de3b1)" style="fill: #ff7f0e"/>
   </g>
   <g id="patch_30">
    <path d="M 497.990436 378.398929 
L 510.523688 378.398929 
L 510.523688 128.146732 
L 497.990436 128.146732 
z
" clip-path="url(#pc96a7de3b1)" style="fill: #ff7f0e"/>
   </g>
   <g id="patch_31">
    <path d="M 513.657001 378.398929 
L 526.190253 378.398929 
L 526.190253 100.340932 
L 513.657001 100.340932 
z
" clip-path="url(#pc96a7de3b1)" style="fill: #ff7f0e"/>
   </g>
   <g id="patch_32">
    <path d="M 529.323566 378.398929 
L 541.856818 378.398929 
L 541.856818 132.424547 
L 529.323566 132.424547 
z
" clip-path="url(#pc96a7de3b1)" style="fill: #d62728"/>
   </g>
   <g id="matplotlib.axis_1">
    <g id="xtick_1">
     <g id="line2d_1">
      <defs>
       <path id="m2483bb0312" d="M 0 0 
L 0 3.5 
" style="stroke: #333333; stroke-width: 0.8"/>
      </defs>
      <g>
       <use xlink:href="#m2483bb0312" x="81.259808" y="378.398929" style="fill: #333333; stroke: #333333; stroke-width: 0.8"/>
      </g>
     </g>
     <g id="text_1">
      <!-- T1 -->
      <g style="fill: #333333" transform="translate(78.802059 399.589678) rotate(-45) scale(0.1 -0.1)">
       <defs>
        <path id="DejaVuSans-54" d="M -19 4666 
L 3928 4666 
L 3928 4134 
L 2272 4134 
L 2272 0 
L 1638 0 
L 1638 4134 
L -19 4134 
L -19 4666 
z
" transform="scale(0.015625)"/>
        <path id="DejaVuSans-31" d="M 794 531 
L 1825 531 
L 1825 4091 
L 703 3866 
L 703 4441 
L 1819 4666 
L 2450 4666 
L 2450 531 
L 3481 531 
L 3481 0 
L 794 0 
L 794 531 
z
" transform="scale(0.015625)"/>
       </defs>
       <use xlink:href="#DejaVuSans-54"/>
       <use xlink:href="#DejaVuSans-31" transform="translate(61.083984 0)"/>
      </g>
     </g>
    </g>
    <g id="xtick_2">
     <g id="line2d_2">
      <g>
       <use xlink:href="#m2483bb0312" x="96.926373" y="378.398929" style="fill: #333333; stroke: #333333; stroke-width: 0.8"/>
      </g>
     </g>
     <g id="text_2">
      <!-- T10 -->
      <g style="fill: #333333" transform="translate(92.219141 404.088645) rotate(-45) scale(0.1 -0.1)">
       <defs>
        <path id="DejaVuSans-30" d="M 2034 4250 
Q 1547 4250 1301 3770 
Q 1056 3291 1056 2328 
Q 1056 1369 1301 889 
Q 1547 409 2034 409 
Q 2525 409 2770 889 
Q 3016 1369 3016 2328 
Q 3016 3291 2770 3770 
Q 2525 4250 2034 4250 
z
M 2034 4750 
Q 2819 4750 3233 4129 
Q 3647 3509 3647 2328 
Q 3647 1150 3233 529 
Q 2819 -91 2034 -91 
Q 1250 -91 836 529 
Q 422 1150 422 2328 
Q 422 3509 836 4129 
Q 1250 4750 2034 4750 
z
" transform="scale(0.015625)"/>
       </defs>
       <use xlink:href="#DejaVuSans-54"/>
       <use xlink:href="#DejaVuSans-31" transform="translate(61.083984 0)"/>
       <use xlink:href="#DejaVuSans-30" transform="translate(124.707031 0)"/>
      </g>
     </g>
    </g>
    <g id="xtick_3">
     <g id="line2d_3">
      <g>
       <use xlink:href="#m2483bb0312" x="112.592938" y="378.398929" style="fill: #333333; stroke: #333333; stroke-width: 0.8"/>
      </g>
     </g>
     <g id="text_3">
      <!-- T11 -->
      <g style="fill: #333333" transform="translate(107.885706 404.088645) rotate(-45) scale(0.1 -0.1)">
       <use xlink:href="#DejaVuSans-54"/>
       <use xlink:href="#DejaVuSans-31" transform="translate(61.083984 0)"/>
       <use xlink:href="#DejaVuSans-31" transform="translate(124.707031 0)"/>
      </g>
     </g>
    </g>
    <g id="xtick_4">
     <g id="line2d_4">
      <g>
       <use xlink:href="#m2483bb0312" x="128.259503" y="378.398929" style="fill: #333333; stroke: #333333; stroke-width: 0.8"/>
      </g>
     </g>
     <g id="text_4">
      <!-- T12 -->
      <g style="fill: #333333" transform="translate(123.552271 404.088645) rotate(-45) scale(0.1 -0.1)">
       <defs>
        <path id="DejaVuSans-32" d="M 1228 531 
L 3431 531 
L 3431 0 
L 469 0 
L 469 531 
Q 828 903 1448 1529 
Q 2069 2156 2228 2338 
Q 2531 2678 2651 2914 
Q 2772 3150 2772 3378 
Q 2772 3750 2511 3984 
Q 2250 4219 1831 4219 
Q 1534 4219 1204 4116 
Q 875 4013 500 3803 
L 500 4441 
Q 881 4594 1212 4672 
Q 1544 4750 1819 4750 
Q 2544 4750 2975 4387 
Q 3406 4025 3406 3419 
Q 3406 3131 3298 2873 
Q 3191 2616 2906 2266 
Q 2828 2175 2409 1742 
Q 1991 1309 1228 531 
z
" transform="scale(0.015625)"/>
       </defs>
       <use xlink:href="#DejaVuSans-54"/>
       <use xlink:href="#DejaVuSans-31" transform="translate(61.083984 0)"/>
       <use xlink:href="#DejaVuSans-32" transform="translate(124.707031 0)"/>
      </g>
     </g>
    </g>
    <g id="xtick_5">
     <g id="line2d_5">
      <g>
       <use xlink:href="#m2483bb0312" x="143.926068" y="378.398929" style="fill: #333333; stroke: #333333; stroke-width: 0.8"/>
      </g>
     </g>
     <g id="text_5">
      <!-- T13 -->
      <g style="fill: #333333" transform="translate(139.218836 404.088645) rotate(-45) scale(0.1 -0.1)">
       <defs>
        <path id="DejaVuSans-33" d="M 2597 2516 
Q 3050 2419 3304 2112 
Q 3559 1806 3559 1356 
Q 3559 666 3084 287 
Q 2609 -91 1734 -91 
Q 1441 -91 1130 -33 
Q 819 25 488 141 
L 488 750 
Q 750 597 1062 519 
Q 1375 441 1716 441 
Q 2309 441 2620 675 
Q 2931 909 2931 1356 
Q 2931 1769 2642 2001 
Q 2353 2234 1838 2234 
L 1294 2234 
L 1294 2753 
L 1863 2753 
Q 2328 2753 2575 2939 
Q 2822 3125 2822 3475 
Q 2822 3834 2567 4026 
Q 2313 4219 1838 4219 
Q 1578 4219 1281 4162 
Q 984 4106 628 3988 
L 628 4550 
Q 988 4650 1302 4700 
Q 1616 4750 1894 4750 
Q 2613 4750 3031 4423 
Q 3450 4097 3450 3541 
Q 3450 3153 3228 2886 
Q 3006 2619 2597 2516 
z
" transform="scale(0.015625)"/>
       </defs>
       <use xlink:href="#DejaVuSans-54"/>
       <use xlink:href="#DejaVuSans-31" transform="translate(61.083984 0)"/>
       <use xlink:href="#DejaVuSans-33" transform="translate(124.707031 0)"/>
      </g>
     </g>
    </g>
    <g id="xtick_6">
     <g id="line2d_6">
      <g>
       <use xlink:href="#m2483bb0312" x="159.592633" y="378.398929" style="fill: #333333; stroke: #333333; stroke-width: 0.8"/>
      </g>
     </g>
     <g id="text_6">
      <!-- T14 -->
      <g style="fill: #333333" transform="translate(154.885401 404.088645) rotate(-45) scale(0.1 -0.1)">
       <defs>
        <path id="DejaVuSans-34" d="M 2419 4116 
L 825 1625 
L 2419 1625 
L 2419 4116 
z
M 2253 4666 
L 3047 4666 
L 3047 1625 
L 3713 1625 
L 3713 1100 
L 3047 1100 
L 3047 0 
L 2419 0 
L 2419 1100 
L 313 1100 
L 313 1709 
L 2253 4666 
z
" transform="scale(0.015625)"/>
       </defs>
       <use xlink:href="#DejaVuSans-54"/>
       <use xlink:href="#DejaVuSans-31" transform="translate(61.083984 0)"/>
       <use xlink:href="#DejaVuSans-34" transform="translate(124.707031 0)"/>
      </g>
     </g>
    </g>
    <g id="xtick_7">
     <g id="line2d_7">
      <g>
       <use xlink:href="#m2483bb0312" x="175.259198" y="378.398929" style="fill: #333333; stroke: #333333; stroke-width: 0.8"/>
      </g>
     </g>
     <g id="text_7">
      <!-- T15 -->
      <g style="fill: #333333" transform="translate(170.551966 404.088645) rotate(-45) scale(0.1 -0.1)">
       <defs>
        <path id="DejaVuSans-35" d="M 691 4666 
L 3169 4666 
L 3169 4134 
L 1269 4134 
L 1269 2991 
Q 1406 3038 1543 3061 
Q 1681 3084 1819 3084 
Q 2600 3084 3056 2656 
Q 3513 2228 3513 1497 
Q 3513 744 3044 326 
Q 2575 -91 1722 -91 
Q 1428 -91 1123 -41 
Q 819 9 494 109 
L 494 744 
Q 775 591 1075 516 
Q 1375 441 1709 441 
Q 2250 441 2565 725 
Q 2881 1009 2881 1497 
Q 2881 1984 2565 2268 
Q 2250 2553 1709 2553 
Q 1456 2553 1204 2497 
Q 953 2441 691 2322 
L 691 4666 
z
" transform="scale(0.015625)"/>
       </defs>
       <use xlink:href="#DejaVuSans-54"/>
       <use xlink:href="#DejaVuSans-31" transform="translate(61.083984 0)"/>
       <use xlink:href="#DejaVuSans-35" transform="translate(124.707031 0)"/>
      </g>
     </g>
    </g>
    <g id="xtick_8">
     <g id="line2d_8">
      <g>
       <use xlink:href="#m2483bb0312" x="190.925763" y="378.398929" style="fill: #333333; stroke: #333333; stroke-width: 0.8"/>
      </g>
     </g>
     <g id="text_8">
      <!-- T16 -->
      <g style="fill: #333333" transform="translate(186.218531 404.088645) rotate(-45) scale(0.1 -0.1)">
       <defs>
        <path id="DejaVuSans-36" d="M 2113 2584 
Q 1688 2584 1439 2293 
Q 1191 2003 1191 1497 
Q 1191 994 1439 701 
Q 1688 409 2113 409 
Q 2538 409 2786 701 
Q 3034 994 3034 1497 
Q 3034 2003 2786 2293 
Q 2538 2584 2113 2584 
z
M 3366 4563 
L 3366 3988 
Q 3128 4100 2886 4159 
Q 2644 4219 2406 4219 
Q 1781 4219 1451 3797 
Q 1122 3375 1075 2522 
Q 1259 2794 1537 2939 
Q 1816 3084 2150 3084 
Q 2853 3084 3261 2657 
Q 3669 2231 3669 1497 
Q 3669 778 3244 343 
Q 2819 -91 2113 -91 
Q 1303 -91 875 529 
Q 447 1150 447 2328 
Q 447 3434 972 4092 
Q 1497 4750 2381 4750 
Q 2619 4750 2861 4703 
Q 3103 4656 3366 4563 
z
" transform="scale(0.015625)"/>
       </defs>
       <use xlink:href="#DejaVuSans-54"/>
       <use xlink:href="#DejaVuSans-31" transform="translate(61.083984 0)"/>
       <use xlink:href="#DejaVuSans-36" transform="translate(124.707031 0)"/>
      </g>
     </g>
    </g>
    <g id="xtick_9">
     <g id="line2d_9">
      <g>
       <use xlink:href="#m2483bb0312" x="206.592328" y="378.398929" style="fill: #333333; stroke: #333333; stroke-width: 0.8"/>
      </g>
     </g>
     <g id="text_9">
      <!-- T17 -->
      <g style="fill: #333333" transform="translate(201.885096 404.088645) rotate(-45) scale(0.1 -0.1)">
       <defs>
        <path id="DejaVuSans-37" d="M 525 4666 
L 3525 4666 
L 3525 4397 
L 1831 0 
L 1172 0 
L 2766 4134 
L 525 4134 
L 525 4666 
z
" transform="scale(0.015625)"/>
       </defs>
       <use xlink:href="#DejaVuSans-54"/>
       <use xlink:href="#DejaVuSans-31" transform="translate(61.083984 0)"/>
       <use xlink:href="#DejaVuSans-37" transform="translate(124.707031 0)"/>
      </g>
     </g>
    </g>
    <g id="xtick_10">
     <g id="line2d_10">
      <g>
       <use xlink:href="#m2483bb0312" x="222.258893" y="378.398929" style="fill: #333333; stroke: #333333; stroke-width: 0.8"/>
      </g>
     </g>
     <g id="text_10">
      <!-- T18 -->
      <g style="fill: #333333" transform="translate(217.551661 404.088645) rotate(-45) scale(0.1 -0.1)">
       <defs>
        <path id="DejaVuSans-38" d="M 2034 2216 
Q 1584 2216 1326 1975 
Q 1069 1734 1069 1313 
Q 1069 891 1326 650 
Q 1584 409 2034 409 
Q 2484 409 2743 651 
Q 3003 894 3003 1313 
Q 3003 1734 2745 1975 
Q 2488 2216 2034 2216 
z
M 1403 2484 
Q 997 2584 770 2862 
Q 544 3141 544 3541 
Q 544 4100 942 4425 
Q 1341 4750 2034 4750 
Q 2731 4750 3128 4425 
Q 3525 4100 3525 3541 
Q 3525 3141 3298 2862 
Q 3072 2584 2669 2484 
Q 3125 2378 3379 2068 
Q 3634 1759 3634 1313 
Q 3634 634 3220 271 
Q 2806 -91 2034 -91 
Q 1263 -91 848 271 
Q 434 634 434 1313 
Q 434 1759 690 2068 
Q 947 2378 1403 2484 
z
M 1172 3481 
Q 1172 3119 1398 2916 
Q 1625 2713 2034 2713 
Q 2441 2713 2670 2916 
Q 2900 3119 2900 3481 
Q 2900 3844 2670 4047 
Q 2441 4250 2034 4250 
Q 1625 4250 1398 4047 
Q 1172 3844 1172 3481 
z
" transform="scale(0.015625)"/>
       </defs>
       <use xlink:href="#DejaVuSans-54"/>
       <use xlink:href="#DejaVuSans-31" transform="translate(61.083984 0)"/>
       <use xlink:href="#DejaVuSans-38" transform="translate(124.707031 0)"/>
      </g>
     </g>
    </g>
    <g id="xtick_11">
     <g id="line2d_11">
      <g>
       <use xlink:href="#m2483bb0312" x="237.925458" y="378.398929" style="fill: #333333; stroke: #333333; stroke-width: 0.8"/>
      </g>
     </g>
     <g id="text_11">
      <!-- T19 -->
      <g style="fill: #333333" transform="translate(233.218226 404.088645) rotate(-45) scale(0.1 -0.1)">
       <defs>
        <path id="DejaVuSans-39" d="M 703 97 
L 703 672 
Q 941 559 1184 500 
Q 1428 441 1663 441 
Q 2288 441 2617 861 
Q 2947 1281 2994 2138 
Q 2813 1869 2534 1725 
Q 2256 1581 1919 1581 
Q 1219 1581 811 2004 
Q 403 2428 403 3163 
Q 403 3881 828 4315 
Q 1253 4750 1959 4750 
Q 2769 4750 3195 4129 
Q 3622 3509 3622 2328 
Q 3622 1225 3098 567 
Q 2575 -91 1691 -91 
Q 1453 -91 1209 -44 
Q 966 3 703 97 
z
M 1959 2075 
Q 2384 2075 2632 2365 
Q 2881 2656 2881 3163 
Q 2881 3666 2632 3958 
Q 2384 4250 1959 4250 
Q 1534 4250 1286 3958 
Q 1038 3666 1038 3163 
Q 1038 2656 1286 2365 
Q 1534 2075 1959 2075 
z
" transform="scale(0.015625)"/>
       </defs>
       <use xlink:href="#DejaVuSans-54"/>
       <use xlink:href="#DejaVuSans-31" transform="translate(61.083984 0)"/>
       <use xlink:href="#DejaVuSans-39" transform="translate(124.707031 0)"/>
      </g>
     </g>
    </g>
    <g id="xtick_12">
     <g id="line2d_12">
      <g>
       <use xlink:href="#m2483bb0312" x="253.592023" y="378.398929" style="fill: #333333; stroke: #333333; stroke-width: 0.8"/>
      </g>
     </g>
     <g id="text_12">
      <!-- T2 -->
      <g style="fill: #333333" transform="translate(251.134274 399.589678) rotate(-45) scale(0.1 -0.1)">
       <use xlink:href="#DejaVuSans-54"/>
       <use xlink:href="#DejaVuSans-32" transform="translate(61.083984 0)"/>
      </g>
     </g>
    </g>
    <g id="xtick_13">
     <g id="line2d_13">
      <g>
       <use xlink:href="#m2483bb0312" x="269.258588" y="378.398929" style="fill: #333333; stroke: #333333; stroke-width: 0.8"/>
      </g>
     </g>
     <g id="text_13">
      <!-- T20 -->
      <g style="fill: #333333" transform="translate(264.551356 404.088645) rotate(-45) scale(0.1 -0.1)">
       <use xlink:href="#DejaVuSans-54"/>
       <use xlink:href="#DejaVuSans-32" transform="translate(61.083984 0)"/>
       <use xlink:href="#DejaVuSans-30" transform="translate(124.707031 0)"/>
      </g>
     </g>
    </g>
    <g id="xtick_14">
     <g id="line2d_14">
      <g>
       <use xlink:href="#m2483bb0312" x="284.925153" y="378.398929" style="fill: #333333; stroke: #333333; stroke-width: 0.8"/>
      </g>
     </g>
     <g id="text_14">
      <!-- T21 -->
      <g style="fill: #333333" transform="translate(280.217921 404.088645) rotate(-45) scale(0.1 -0.1)">
       <use xlink:href="#DejaVuSans-54"/>
       <use xlink:href="#DejaVuSans-32" transform="translate(61.083984 0)"/>
       <use xlink:href="#DejaVuSans-31" transform="translate(124.707031 0)"/>
      </g>
     </g>
    </g>
    <g id="xtick_15">
     <g id="line2d_15">
      <g>
       <use xlink:href="#m2483bb0312" x="300.591718" y="378.398929" style="fill: #333333; stroke: #333333; stroke-width: 0.8"/>
      </g>
     </g>
     <g id="text_15">
      <!-- T22 -->
      <g style="fill: #333333" transform="translate(295.884486 404.088645) rotate(-45) scale(0.1 -0.1)">
       <use xlink:href="#DejaVuSans-54"/>
       <use xlink:href="#DejaVuSans-32" transform="translate(61.083984 0)"/>
       <use xlink:href="#DejaVuSans-32" transform="translate(124.707031 0)"/>
      </g>
     </g>
    </g>
    <g id="xtick_16">
     <g id="line2d_16">
      <g>
       <use xlink:href="#m2483bb0312" x="316.258282" y="378.398929" style="fill: #333333; stroke: #333333; stroke-width: 0.8"/>
      </g>
     </g>
     <g id="text_16">
      <!-- T23 -->
      <g style="fill: #333333" transform="translate(311.551051 404.088645) rotate(-45) scale(0.1 -0.1)">
       <use xlink:href="#DejaVuSans-54"/>
       <use xlink:href="#DejaVuSans-32" transform="translate(61.083984 0)"/>
       <use xlink:href="#DejaVuSans-33" transform="translate(124.707031 0)"/>
      </g>
     </g>
    </g>
    <g id="xtick_17">
     <g id="line2d_17">
      <g>
       <use xlink:href="#m2483bb0312" x="331.924847" y="378.398929" style="fill: #333333; stroke: #333333; stroke-width: 0.8"/>
      </g>
     </g>
     <g id="text_17">
      <!-- T24 -->
      <g style="fill: #333333" transform="translate(327.217616 404.088645) rotate(-45) scale(0.1 -0.1)">
       <use xlink:href="#DejaVuSans-54"/>
       <use xlink:href="#DejaVuSans-32" transform="translate(61.083984 0)"/>
       <use xlink:href="#DejaVuSans-34" transform="translate(124.707031 0)"/>
      </g>
     </g>
    </g>
    <g id="xtick_18">
     <g id="line2d_18">
      <g>
       <use xlink:href="#m2483bb0312" x="347.591412" y="378.398929" style="fill: #333333; stroke: #333333; stroke-width: 0.8"/>
      </g>
     </g>
     <g id="text_18">
      <!-- T25 -->
      <g style="fill: #333333" transform="translate(342.884181 404.088645) rotate(-45) scale(0.1 -0.1)">
       <use xlink:href="#DejaVuSans-54"/>
       <use xlink:href="#DejaVuSans-32" transform="translate(61.083984 0)"/>
       <use xlink:href="#DejaVuSans-35" transform="translate(124.707031 0)"/>
      </g>
     </g>
    </g>
    <g id="xtick_19">
     <g id="line2d_19">
      <g>
       <use xlink:href="#m2483bb0312" x="363.257977" y="378.398929" style="fill: #333333; stroke: #333333; stroke-width: 0.8"/>
      </g>
     </g>
     <g id="text_19">
      <!-- T26 -->
      <g style="fill: #333333" transform="translate(358.550745 404.088645) rotate(-45) scale(0.1 -0.1)">
       <use xlink:href="#DejaVuSans-54"/>
       <use xlink:href="#DejaVuSans-32" transform="translate(61.083984 0)"/>
       <use xlink:href="#DejaVuSans-36" transform="translate(124.707031 0)"/>
      </g>
     </g>
    </g>
    <g id="xtick_20">
     <g id="line2d_20">
      <g>
       <use xlink:href="#m2483bb0312" x="378.924542" y="378.398929" style="fill: #333333; stroke: #333333; stroke-width: 0.8"/>
      </g>
     </g>
     <g id="text_20">
      <!-- T27 -->
      <g style="fill: #333333" transform="translate(374.21731 404.088645) rotate(-45) scale(0.1 -0.1)">
       <use xlink:href="#DejaVuSans-54"/>
       <use xlink:href="#DejaVuSans-32" transform="translate(61.083984 0)"/>
       <use xlink:href="#DejaVuSans-37" transform="translate(124.707031 0)"/>
      </g>
     </g>
    </g>
    <g id="xtick_21">
     <g id="line2d_21">
      <g>
       <use xlink:href="#m2483bb0312" x="394.591107" y="378.398929" style="fill: #333333; stroke: #333333; stroke-width: 0.8"/>
      </g>
     </g>
     <g id="text_21">
      <!-- T28 -->
      <g style="fill: #333333" transform="translate(389.883875 404.088645) rotate(-45) scale(0.1 -0.1)">
       <use xlink:href="#DejaVuSans-54"/>
       <use xlink:href="#DejaVuSans-32" transform="translate(61.083984 0)"/>
       <use xlink:href="#DejaVuSans-38" transform="translate(124.707031 0)"/>
      </g>
     </g>
    </g>
    <g id="xtick_22">
     <g id="line2d_22">
      <g>
       <use xlink:href="#m2483bb0312" x="410.257672" y="378.398929" style="fill: #333333; stroke: #333333; stroke-width: 0.8"/>
      </g>
     </g>
     <g id="text_22">
      <!-- T29 -->
      <g style="fill: #333333" transform="translate(405.55044 404.088645) rotate(-45) scale(0.1 -0.1)">
       <use xlink:href="#DejaVuSans-54"/>
       <use xlink:href="#DejaVuSans-32" transform="translate(61.083984 0)"/>
       <use xlink:href="#DejaVuSans-39" transform="translate(124.707031 0)"/>
      </g>
     </g>
    </g>
    <g id="xtick_23">
     <g id="line2d_23">
      <g>
       <use xlink:href="#m2483bb0312" x="425.924237" y="378.398929" style="fill: #333333; stroke: #333333; stroke-width: 0.8"/>
      </g>
     </g>
     <g id="text_23">
      <!-- T3 -->
      <g style="fill: #333333" transform="translate(423.466489 399.589678) rotate(-45) scale(0.1 -0.1)">
       <use xlink:href="#DejaVuSans-54"/>
       <use xlink:href="#DejaVuSans-33" transform="translate(61.083984 0)"/>
      </g>
     </g>
    </g>
    <g id="xtick_24">
     <g id="line2d_24">
      <g>
       <use xlink:href="#m2483bb0312" x="441.590802" y="378.398929" style="fill: #333333; stroke: #333333; stroke-width: 0.8"/>
      </g>
     </g>
     <g id="text_24">
      <!-- T30 -->
      <g style="fill: #333333" transform="translate(436.88357 404.088645) rotate(-45) scale(0.1 -0.1)">
       <use xlink:href="#DejaVuSans-54"/>
       <use xlink:href="#DejaVuSans-33" transform="translate(61.083984 0)"/>
       <use xlink:href="#DejaVuSans-30" transform="translate(124.707031 0)"/>
      </g>
     </g>
    </g>
    <g id="xtick_25">
     <g id="line2d_25">
      <g>
       <use xlink:href="#m2483bb0312" x="457.257367" y="378.398929" style="fill: #333333; stroke: #333333; stroke-width: 0.8"/>
      </g>
     </g>
     <g id="text_25">
      <!-- T4 -->
      <g style="fill: #333333" transform="translate(454.799619 399.589678) rotate(-45) scale(0.1 -0.1)">
       <use xlink:href="#DejaVuSans-54"/>
       <use xlink:href="#DejaVuSans-34" transform="translate(61.083984 0)"/>
      </g>
     </g>
    </g>
    <g id="xtick_26">
     <g id="line2d_26">
      <g>
       <use xlink:href="#m2483bb0312" x="472.923932" y="378.398929" style="fill: #333333; stroke: #333333; stroke-width: 0.8"/>
      </g>
     </g>
     <g id="text_26">
      <!-- T5 -->
      <g style="fill: #333333" transform="translate(470.466184 399.589678) rotate(-45) scale(0.1 -0.1)">
       <use xlink:href="#DejaVuSans-54"/>
       <use xlink:href="#DejaVuSans-35" transform="translate(61.083984 0)"/>
      </g>
     </g>
    </g>
    <g id="xtick_27">
     <g id="line2d_27">
      <g>
       <use xlink:href="#m2483bb0312" x="488.590497" y="378.398929" style="fill: #333333; stroke: #333333; stroke-width: 0.8"/>
      </g>
     </g>
     <g id="text_27">
      <!-- T6 -->
      <g style="fill: #333333" transform="translate(486.132749 399.589678) rotate(-45) scale(0.1 -0.1)">
       <use xlink:href="#DejaVuSans-54"/>
       <use xlink:href="#DejaVuSans-36" transform="translate(61.083984 0)"/>
      </g>
     </g>
    </g>
    <g id="xtick_28">
     <g id="line2d_28">
      <g>
       <use xlink:href="#m2483bb0312" x="504.257062" y="378.398929" style="fill: #333333; stroke: #333333; stroke-width: 0.8"/>
      </g>
     </g>
     <g id="text_28">
      <!-- T7 -->
      <g style="fill: #333333" transform="translate(501.799314 399.589678) rotate(-45) scale(0.1 -0.1)">
       <use xlink:href="#DejaVuSans-54"/>
       <use xlink:href="#DejaVuSans-37" transform="translate(61.083984 0)"/>
      </g>
     </g>
    </g>
    <g id="xtick_29">
     <g id="line2d_29">
      <g>
       <use xlink:href="#m2483bb0312" x="519.923627" y="378.398929" style="fill: #333333; stroke: #333333; stroke-width: 0.8"/>
      </g>
     </g>
     <g id="text_29">
      <!-- T8 -->
      <g style="fill: #333333" transform="translate(517.465879 399.589678) rotate(-45) scale(0.1 -0.1)">
       <use xlink:href="#DejaVuSans-54"/>
       <use xlink:href="#DejaVuSans-38" transform="translate(61.083984 0)"/>
      </g>
     </g>
    </g>
    <g id="xtick_30">
     <g id="line2d_30">
      <g>
       <use xlink:href="#m2483bb0312" x="535.590192" y="378.398929" style="fill: #333333; stroke: #333333; stroke-width: 0.8"/>
      </g>
     </g>
     <g id="text_30">
      <!-- T9 -->
      <g style="fill: #333333" transform="translate(533.132444 399.589678) rotate(-45) scale(0.1 -0.1)">
       <use xlink:href="#DejaVuSans-54"/>
       <use xlink:href="#DejaVuSans-39" transform="translate(61.083984 0)"/>
      </g>
     </g>
    </g>
    <g id="text_31">
     <!-- Task ID -->
     <g style="fill: #333333" transform="translate(290.717969 417.157643) scale(0.1 -0.1)">
      <defs>
       <path id="DejaVuSans-61" d="M 2194 1759 
Q 1497 1759 1228 1600 
Q 959 1441 959 1056 
Q 959 750 1161 570 
Q 1363 391 1709 391 
Q 2188 391 2477 730 
Q 2766 1069 2766 1631 
L 2766 1759 
L 2194 1759 
z
M 3341 1997 
L 3341 0 
L 2766 0 
L 2766 531 
Q 2569 213 2275 61 
Q 1981 -91 1556 -91 
Q 1019 -91 701 211 
Q 384 513 384 1019 
Q 384 1609 779 1909 
Q 1175 2209 1959 2209 
L 2766 2209 
L 2766 2266 
Q 2766 2663 2505 2880 
Q 2244 3097 1772 3097 
Q 1472 3097 1187 3025 
Q 903 2953 641 2809 
L 641 3341 
Q 956 3463 1253 3523 
Q 1550 3584 1831 3584 
Q 2591 3584 2966 3190 
Q 3341 2797 3341 1997 
z
" transform="scale(0.015625)"/>
       <path id="DejaVuSans-73" d="M 2834 3397 
L 2834 2853 
Q 2591 2978 2328 3040 
Q 2066 3103 1784 3103 
Q 1356 3103 1142 2972 
Q 928 2841 928 2578 
Q 928 2378 1081 2264 
Q 1234 2150 1697 2047 
L 1894 2003 
Q 2506 1872 2764 1633 
Q 3022 1394 3022 966 
Q 3022 478 2636 193 
Q 2250 -91 1575 -91 
Q 1294 -91 989 -36 
Q 684 19 347 128 
L 347 722 
Q 666 556 975 473 
Q 1284 391 1588 391 
Q 1994 391 2212 530 
Q 2431 669 2431 922 
Q 2431 1156 2273 1281 
Q 2116 1406 1581 1522 
L 1381 1569 
Q 847 1681 609 1914 
Q 372 2147 372 2553 
Q 372 3047 722 3315 
Q 1072 3584 1716 3584 
Q 2034 3584 2315 3537 
Q 2597 3491 2834 3397 
z
" transform="scale(0.015625)"/>
       <path id="DejaVuSans-6b" d="M 581 4863 
L 1159 4863 
L 1159 1991 
L 2875 3500 
L 3609 3500 
L 1753 1863 
L 3688 0 
L 2938 0 
L 1159 1709 
L 1159 0 
L 581 0 
L 581 4863 
z
" transform="scale(0.015625)"/>
       <path id="DejaVuSans-20" transform="scale(0.015625)"/>
       <path id="DejaVuSans-49" d="M 628 4666 
L 1259 4666 
L 1259 0 
L 628 0 
L 628 4666 
z
" transform="scale(0.015625)"/>
       <path id="DejaVuSans-44" d="M 1259 4147 
L 1259 519 
L 2022 519 
Q 2988 519 3436 956 
Q 3884 1394 3884 2338 
Q 3884 3275 3436 3711 
Q 2988 4147 2022 4147 
L 1259 4147 
z
M 628 4666 
L 1925 4666 
Q 3281 4666 3915 4102 
Q 4550 3538 4550 2338 
Q 4550 1131 3912 565 
Q 3275 0 1925 0 
L 628 0 
L 628 4666 
z
" transform="scale(0.015625)"/>
      </defs>
      <use xlink:href="#DejaVuSans-54"/>
      <use xlink:href="#DejaVuSans-61" transform="translate(44.583984 0)"/>
      <use xlink:href="#DejaVuSans-73" transform="translate(105.863281 0)"/>
      <use xlink:href="#DejaVuSans-6b" transform="translate(157.962891 0)"/>
      <use xlink:href="#DejaVuSans-20" transform="translate(215.873047 0)"/>
      <use xlink:href="#DejaVuSans-49" transform="translate(247.660156 0)"/>
      <use xlink:href="#DejaVuSans-44" transform="translate(277.152344 0)"/>
     </g>
    </g>
   </g>
   <g id="matplotlib.axis_2">
    <g id="ytick_1">
     <g id="line2d_31">
      <defs>
       <path id="m9afccb747e" d="M 0 0 
L -3.5 0 
" style="stroke: #333333; stroke-width: 0.8"/>
      </defs>
      <g>
       <use xlink:href="#m9afccb747e" x="51.65" y="378.398929" style="fill: #333333; stroke: #333333; stroke-width: 0.8"/>
      </g>
     </g>
     <g id="text_32">
      <!-- 0 -->
      <g style="fill: #333333" transform="translate(38.2875 382.198147) scale(0.1 -0.1)">
       <use xlink:href="#DejaVuSans-30"/>
      </g>
     </g>
    </g>
    <g id="ytick_2">
     <g id="line2d_32">
      <g>
       <use xlink:href="#m9afccb747e" x="51.65" y="335.620775" style="fill: #333333; stroke: #333333; stroke-width: 0.8"/>
      </g>
     </g>
     <g id="text_33">
      <!-- 20 -->
      <g style="fill: #333333" transform="translate(31.925 339.419994) scale(0.1 -0.1)">
       <use xlink:href="#DejaVuSans-32"/>
       <use xlink:href="#DejaVuSans-30" transform="translate(63.623047 0)"/>
      </g>
     </g>
    </g>
    <g id="ytick_3">
     <g id="line2d_33">
      <g>
       <use xlink:href="#m9afccb747e" x="51.65" y="292.842622" style="fill: #333333; stroke: #333333; stroke-width: 0.8"/>
      </g>
     </g>
     <g id="text_34">
      <!-- 40 -->
      <g style="fill: #333333" transform="translate(31.925 296.641841) scale(0.1 -0.1)">
       <use xlink:href="#DejaVuSans-34"/>
       <use xlink:href="#DejaVuSans-30" transform="translate(63.623047 0)"/>
      </g>
     </g>
    </g>
    <g id="ytick_4">
     <g id="line2d_34">
      <g>
       <use xlink:href="#m9afccb747e" x="51.65" y="250.064469" style="fill: #333333; stroke: #333333; stroke-width: 0.8"/>
      </g>
     </g>
     <g id="text_35">
      <!-- 60 -->
      <g style="fill: #333333" transform="translate(31.925 253.863687) scale(0.1 -0.1)">
       <use xlink:href="#DejaVuSans-36"/>
       <use xlink:href="#DejaVuSans-30" transform="translate(63.623047 0)"/>
      </g>
     </g>
    </g>
    <g id="ytick_5">
     <g id="line2d_35">
      <g>
       <use xlink:href="#m9afccb747e" x="51.65" y="207.286315" style="fill: #333333; stroke: #333333; stroke-width: 0.8"/>
      </g>
     </g>
     <g id="text_36">
      <!-- 80 -->
      <g style="fill: #333333" transform="translate(31.925 211.085534) scale(0.1 -0.1)">
       <use xlink:href="#DejaVuSans-38"/>
       <use xlink:href="#DejaVuSans-30" transform="translate(63.623047 0)"/>
      </g>
     </g>
    </g>
    <g id="ytick_6">
     <g id="line2d_36">
      <g>
       <use xlink:href="#m9afccb747e" x="51.65" y="164.508162" style="fill: #333333; stroke: #333333; stroke-width: 0.8"/>
      </g>
     </g>
     <g id="text_37">
      <!-- 100 -->
      <g style="fill: #333333" transform="translate(25.5625 168.307381) scale(0.1 -0.1)">
       <use xlink:href="#DejaVuSans-31"/>
       <use xlink:href="#DejaVuSans-30" transform="translate(63.623047 0)"/>
       <use xlink:href="#DejaVuSans-30" transform="translate(127.246094 0)"/>
      </g>
     </g>
    </g>
    <g id="ytick_7">
     <g id="line2d_37">
      <g>
       <use xlink:href="#m9afccb747e" x="51.65" y="121.730009" style="fill: #333333; stroke: #333333; stroke-width: 0.8"/>
      </g>
     </g>
     <g id="text_38">
      <!-- 120 -->
      <g style="fill: #333333" transform="translate(25.5625 125.529228) scale(0.1 -0.1)">
       <use xlink:href="#DejaVuSans-31"/>
       <use xlink:href="#DejaVuSans-32" transform="translate(63.623047 0)"/>
       <use xlink:href="#DejaVuSans-30" transform="translate(127.246094 0)"/>
      </g>
     </g>
    </g>
    <g id="ytick_8">
     <g id="line2d_38">
      <g>
       <use xlink:href="#m9afccb747e" x="51.65" y="78.951855" style="fill: #333333; stroke: #333333; stroke-width: 0.8"/>
      </g>
     </g>
     <g id="text_39">
      <!-- 140 -->
      <g style="fill: #333333" transform="translate(25.5625 82.751074) scale(0.1 -0.1)">
       <use xlink:href="#DejaVuSans-31"/>
       <use xlink:href="#DejaVuSans-34" transform="translate(63.623047 0)"/>
       <use xlink:href="#DejaVuSans-30" transform="translate(127.246094 0)"/>
      </g>
     </g>
    </g>
    <g id="ytick_9">
     <g id="line2d_39">
      <g>
       <use xlink:href="#m9afccb747e" x="51.65" y="36.173702" style="fill: #333333; stroke: #333333; stroke-width: 0.8"/>
      </g>
     </g>
     <g id="text_40">
      <!-- 160 -->
      <g style="fill: #333333" transform="translate(25.5625 39.972921) scale(0.1 -0.1)">
       <use xlink:href="#DejaVuSans-31"/>
       <use xlink:href="#DejaVuSans-36" transform="translate(63.623047 0)"/>
       <use xlink:href="#DejaVuSans-30" transform="translate(127.246094 0)"/>
      </g>
     </g>
    </g>
    <g id="text_41">
     <!-- Number of Questions -->
     <g style="fill: #333333" transform="translate(19.482813 255.151027) rotate(-90) scale(0.1 -0.1)">
      <defs>
       <path id="DejaVuSans-4e" d="M 628 4666 
L 1478 4666 
L 3547 763 
L 3547 4666 
L 4159 4666 
L 4159 0 
L 3309 0 
L 1241 3903 
L 1241 0 
L 628 0 
L 628 4666 
z
" transform="scale(0.015625)"/>
       <path id="DejaVuSans-75" d="M 544 1381 
L 544 3500 
L 1119 3500 
L 1119 1403 
Q 1119 906 1312 657 
Q 1506 409 1894 409 
Q 2359 409 2629 706 
Q 2900 1003 2900 1516 
L 2900 3500 
L 3475 3500 
L 3475 0 
L 2900 0 
L 2900 538 
Q 2691 219 2414 64 
Q 2138 -91 1772 -91 
Q 1169 -91 856 284 
Q 544 659 544 1381 
z
M 1991 3584 
L 1991 3584 
z
" transform="scale(0.015625)"/>
       <path id="DejaVuSans-6d" d="M 3328 2828 
Q 3544 3216 3844 3400 
Q 4144 3584 4550 3584 
Q 5097 3584 5394 3201 
Q 5691 2819 5691 2113 
L 5691 0 
L 5113 0 
L 5113 2094 
Q 5113 2597 4934 2840 
Q 4756 3084 4391 3084 
Q 3944 3084 3684 2787 
Q 3425 2491 3425 1978 
L 3425 0 
L 2847 0 
L 2847 2094 
Q 2847 2600 2669 2842 
Q 2491 3084 2119 3084 
Q 1678 3084 1418 2786 
Q 1159 2488 1159 1978 
L 1159 0 
L 581 0 
L 581 3500 
L 1159 3500 
L 1159 2956 
Q 1356 3278 1631 3431 
Q 1906 3584 2284 3584 
Q 2666 3584 2933 3390 
Q 3200 3197 3328 2828 
z
" transform="scale(0.015625)"/>
       <path id="DejaVuSans-62" d="M 3116 1747 
Q 3116 2381 2855 2742 
Q 2594 3103 2138 3103 
Q 1681 3103 1420 2742 
Q 1159 2381 1159 1747 
Q 1159 1113 1420 752 
Q 1681 391 2138 391 
Q 2594 391 2855 752 
Q 3116 1113 3116 1747 
z
M 1159 2969 
Q 1341 3281 1617 3432 
Q 1894 3584 2278 3584 
Q 2916 3584 3314 3078 
Q 3713 2572 3713 1747 
Q 3713 922 3314 415 
Q 2916 -91 2278 -91 
Q 1894 -91 1617 61 
Q 1341 213 1159 525 
L 1159 0 
L 581 0 
L 581 4863 
L 1159 4863 
L 1159 2969 
z
" transform="scale(0.015625)"/>
       <path id="DejaVuSans-65" d="M 3597 1894 
L 3597 1613 
L 953 1613 
Q 991 1019 1311 708 
Q 1631 397 2203 397 
Q 2534 397 2845 478 
Q 3156 559 3463 722 
L 3463 178 
Q 3153 47 2828 -22 
Q 2503 -91 2169 -91 
Q 1331 -91 842 396 
Q 353 884 353 1716 
Q 353 2575 817 3079 
Q 1281 3584 2069 3584 
Q 2775 3584 3186 3129 
Q 3597 2675 3597 1894 
z
M 3022 2063 
Q 3016 2534 2758 2815 
Q 2500 3097 2075 3097 
Q 1594 3097 1305 2825 
Q 1016 2553 972 2059 
L 3022 2063 
z
" transform="scale(0.015625)"/>
       <path id="DejaVuSans-72" d="M 2631 2963 
Q 2534 3019 2420 3045 
Q 2306 3072 2169 3072 
Q 1681 3072 1420 2755 
Q 1159 2438 1159 1844 
L 1159 0 
L 581 0 
L 581 3500 
L 1159 3500 
L 1159 2956 
Q 1341 3275 1631 3429 
Q 1922 3584 2338 3584 
Q 2397 3584 2469 3576 
Q 2541 3569 2628 3553 
L 2631 2963 
z
" transform="scale(0.015625)"/>
       <path id="DejaVuSans-6f" d="M 1959 3097 
Q 1497 3097 1228 2736 
Q 959 2375 959 1747 
Q 959 1119 1226 758 
Q 1494 397 1959 397 
Q 2419 397 2687 759 
Q 2956 1122 2956 1747 
Q 2956 2369 2687 2733 
Q 2419 3097 1959 3097 
z
M 1959 3584 
Q 2709 3584 3137 3096 
Q 3566 2609 3566 1747 
Q 3566 888 3137 398 
Q 2709 -91 1959 -91 
Q 1206 -91 779 398 
Q 353 888 353 1747 
Q 353 2609 779 3096 
Q 1206 3584 1959 3584 
z
" transform="scale(0.015625)"/>
       <path id="DejaVuSans-66" d="M 2375 4863 
L 2375 4384 
L 1825 4384 
Q 1516 4384 1395 4259 
Q 1275 4134 1275 3809 
L 1275 3500 
L 2222 3500 
L 2222 3053 
L 1275 3053 
L 1275 0 
L 697 0 
L 697 3053 
L 147 3053 
L 147 3500 
L 697 3500 
L 697 3744 
Q 697 4328 969 4595 
Q 1241 4863 1831 4863 
L 2375 4863 
z
" transform="scale(0.015625)"/>
       <path id="DejaVuSans-51" d="M 2522 4238 
Q 1834 4238 1429 3725 
Q 1025 3213 1025 2328 
Q 1025 1447 1429 934 
Q 1834 422 2522 422 
Q 3209 422 3611 934 
Q 4013 1447 4013 2328 
Q 4013 3213 3611 3725 
Q 3209 4238 2522 4238 
z
M 3406 84 
L 4238 -825 
L 3475 -825 
L 2784 -78 
Q 2681 -84 2626 -87 
Q 2572 -91 2522 -91 
Q 1538 -91 948 567 
Q 359 1225 359 2328 
Q 359 3434 948 4092 
Q 1538 4750 2522 4750 
Q 3503 4750 4090 4092 
Q 4678 3434 4678 2328 
Q 4678 1516 4351 937 
Q 4025 359 3406 84 
z
" transform="scale(0.015625)"/>
       <path id="DejaVuSans-74" d="M 1172 4494 
L 1172 3500 
L 2356 3500 
L 2356 3053 
L 1172 3053 
L 1172 1153 
Q 1172 725 1289 603 
Q 1406 481 1766 481 
L 2356 481 
L 2356 0 
L 1766 0 
Q 1100 0 847 248 
Q 594 497 594 1153 
L 594 3053 
L 172 3053 
L 172 3500 
L 594 3500 
L 594 4494 
L 1172 4494 
z
" transform="scale(0.015625)"/>
       <path id="DejaVuSans-69" d="M 603 3500 
L 1178 3500 
L 1178 0 
L 603 0 
L 603 3500 
z
M 603 4863 
L 1178 4863 
L 1178 4134 
L 603 4134 
L 603 4863 
z
" transform="scale(0.015625)"/>
       <path id="DejaVuSans-6e" d="M 3513 2113 
L 3513 0 
L 2938 0 
L 2938 2094 
Q 2938 2591 2744 2837 
Q 2550 3084 2163 3084 
Q 1697 3084 1428 2787 
Q 1159 2491 1159 1978 
L 1159 0 
L 581 0 
L 581 3500 
L 1159 3500 
L 1159 2956 
Q 1366 3272 1645 3428 
Q 1925 3584 2291 3584 
Q 2894 3584 3203 3211 
Q 3513 2838 3513 2113 
z
" transform="scale(0.015625)"/>
      </defs>
      <use xlink:href="#DejaVuSans-4e"/>
      <use xlink:href="#DejaVuSans-75" transform="translate(74.804688 0)"/>
      <use xlink:href="#DejaVuSans-6d" transform="translate(138.183594 0)"/>
      <use xlink:href="#DejaVuSans-62" transform="translate(235.595703 0)"/>
      <use xlink:href="#DejaVuSans-65" transform="translate(299.072266 0)"/>
      <use xlink:href="#DejaVuSans-72" transform="translate(360.595703 0)"/>
      <use xlink:href="#DejaVuSans-20" transform="translate(401.708984 0)"/>
      <use xlink:href="#DejaVuSans-6f" transform="translate(433.496094 0)"/>
      <use xlink:href="#DejaVuSans-66" transform="translate(494.677734 0)"/>
      <use xlink:href="#DejaVuSans-20" transform="translate(529.882812 0)"/>
      <use xlink:href="#DejaVuSans-51" transform="translate(561.669922 0)"/>
      <use xlink:href="#DejaVuSans-75" transform="translate(640.380859 0)"/>
      <use xlink:href="#DejaVuSans-65" transform="translate(703.759766 0)"/>
      <use xlink:href="#DejaVuSans-73" transform="translate(765.283203 0)"/>
      <use xlink:href="#DejaVuSans-74" transform="translate(817.382812 0)"/>
      <use xlink:href="#DejaVuSans-69" transform="translate(856.591797 0)"/>
      <use xlink:href="#DejaVuSans-6f" transform="translate(884.375 0)"/>
      <use xlink:href="#DejaVuSans-6e" transform="translate(945.556641 0)"/>
      <use xlink:href="#DejaVuSans-73" transform="translate(1008.935547 0)"/>
     </g>
    </g>
   </g>
   <g id="patch_33">
    <path d="M 51.65 378.398929 
L 51.65 25.8 
" style="fill: none; stroke: #333333; stroke-width: 0.8; stroke-linejoin: miter; stroke-linecap: square"/>
   </g>
   <g id="patch_34">
    <path d="M 51.65 378.398929 
L 565.2 378.398929 
" style="fill: none; stroke: #333333; stroke-width: 0.8; stroke-linejoin: miter; stroke-linecap: square"/>
   </g>
   <g id="text_42">
    <!-- 115 -->
    <g transform="translate(73.624808 126.482982) scale(0.08 -0.08)">
     <use xlink:href="#DejaVuSans-31"/>
     <use xlink:href="#DejaVuSans-31" transform="translate(63.623047 0)"/>
     <use xlink:href="#DejaVuSans-35" transform="translate(127.246094 0)"/>
    </g>
   </g>
   <g id="text_43">
    <!-- 115 -->
    <g transform="translate(89.291373 126.482982) scale(0.08 -0.08)">
     <use xlink:href="#DejaVuSans-31"/>
     <use xlink:href="#DejaVuSans-31" transform="translate(63.623047 0)"/>
     <use xlink:href="#DejaVuSans-35" transform="translate(127.246094 0)"/>
    </g>
   </g>
   <g id="text_44">
    <!-- 119 -->
    <g transform="translate(104.957938 117.927351) scale(0.08 -0.08)">
     <use xlink:href="#DejaVuSans-31"/>
     <use xlink:href="#DejaVuSans-31" transform="translate(63.623047 0)"/>
     <use xlink:href="#DejaVuSans-39" transform="translate(127.246094 0)"/>
    </g>
   </g>
   <g id="text_45">
    <!-- 107 -->
    <g transform="translate(120.624503 143.594243) scale(0.08 -0.08)">
     <use xlink:href="#DejaVuSans-31"/>
     <use xlink:href="#DejaVuSans-30" transform="translate(63.623047 0)"/>
     <use xlink:href="#DejaVuSans-37" transform="translate(127.246094 0)"/>
    </g>
   </g>
   <g id="text_46">
    <!-- 128 -->
    <g transform="translate(136.291068 98.677182) scale(0.08 -0.08)">
     <use xlink:href="#DejaVuSans-31"/>
     <use xlink:href="#DejaVuSans-32" transform="translate(63.623047 0)"/>
     <use xlink:href="#DejaVuSans-38" transform="translate(127.246094 0)"/>
    </g>
   </g>
   <g id="text_47">
    <!-- 107 -->
    <g transform="translate(151.957633 143.594243) scale(0.08 -0.08)">
     <use xlink:href="#DejaVuSans-31"/>
     <use xlink:href="#DejaVuSans-30" transform="translate(63.623047 0)"/>
     <use xlink:href="#DejaVuSans-37" transform="translate(127.246094 0)"/>
    </g>
   </g>
   <g id="text_48">
    <!-- 129 -->
    <g transform="translate(167.624198 96.538274) scale(0.08 -0.08)">
     <use xlink:href="#DejaVuSans-31"/>
     <use xlink:href="#DejaVuSans-32" transform="translate(63.623047 0)"/>
     <use xlink:href="#DejaVuSans-39" transform="translate(127.246094 0)"/>
    </g>
   </g>
   <g id="text_49">
    <!-- 155 -->
    <g transform="translate(183.290763 40.926675) scale(0.08 -0.08)">
     <use xlink:href="#DejaVuSans-31"/>
     <use xlink:href="#DejaVuSans-35" transform="translate(63.623047 0)"/>
     <use xlink:href="#DejaVuSans-35" transform="translate(127.246094 0)"/>
    </g>
   </g>
   <g id="text_50">
    <!-- 154 -->
    <g transform="translate(198.957328 43.065583) scale(0.08 -0.08)">
     <use xlink:href="#DejaVuSans-31"/>
     <use xlink:href="#DejaVuSans-35" transform="translate(63.623047 0)"/>
     <use xlink:href="#DejaVuSans-34" transform="translate(127.246094 0)"/>
    </g>
   </g>
   <g id="text_51">
    <!-- 157 -->
    <g transform="translate(214.623893 36.64886) scale(0.08 -0.08)">
     <use xlink:href="#DejaVuSans-31"/>
     <use xlink:href="#DejaVuSans-35" transform="translate(63.623047 0)"/>
     <use xlink:href="#DejaVuSans-37" transform="translate(127.246094 0)"/>
    </g>
   </g>
   <g id="text_52">
    <!-- 129 -->
    <g transform="translate(230.290458 96.538274) scale(0.08 -0.08)">
     <use xlink:href="#DejaVuSans-31"/>
     <use xlink:href="#DejaVuSans-32" transform="translate(63.623047 0)"/>
     <use xlink:href="#DejaVuSans-39" transform="translate(127.246094 0)"/>
    </g>
   </g>
   <g id="text_53">
    <!-- 113 -->
    <g transform="translate(245.957023 130.760797) scale(0.08 -0.08)">
     <use xlink:href="#DejaVuSans-31"/>
     <use xlink:href="#DejaVuSans-31" transform="translate(63.623047 0)"/>
     <use xlink:href="#DejaVuSans-33" transform="translate(127.246094 0)"/>
    </g>
   </g>
   <g id="text_54">
    <!-- 105 -->
    <g transform="translate(261.623588 147.872058) scale(0.08 -0.08)">
     <use xlink:href="#DejaVuSans-31"/>
     <use xlink:href="#DejaVuSans-30" transform="translate(63.623047 0)"/>
     <use xlink:href="#DejaVuSans-35" transform="translate(127.246094 0)"/>
    </g>
   </g>
   <g id="text_55">
    <!-- 132 -->
    <g transform="translate(277.290153 90.121551) scale(0.08 -0.08)">
     <use xlink:href="#DejaVuSans-31"/>
     <use xlink:href="#DejaVuSans-33" transform="translate(63.623047 0)"/>
     <use xlink:href="#DejaVuSans-32" transform="translate(127.246094 0)"/>
    </g>
   </g>
   <g id="text_56">
    <!-- 144 -->
    <g transform="translate(292.956718 64.454659) scale(0.08 -0.08)">
     <use xlink:href="#DejaVuSans-31"/>
     <use xlink:href="#DejaVuSans-34" transform="translate(63.623047 0)"/>
     <use xlink:href="#DejaVuSans-34" transform="translate(127.246094 0)"/>
    </g>
   </g>
   <g id="text_57">
    <!-- 114 -->
    <g transform="translate(308.623282 128.621889) scale(0.08 -0.08)">
     <use xlink:href="#DejaVuSans-31"/>
     <use xlink:href="#DejaVuSans-31" transform="translate(63.623047 0)"/>
     <use xlink:href="#DejaVuSans-34" transform="translate(127.246094 0)"/>
    </g>
   </g>
   <g id="text_58">
    <!-- 138 -->
    <g transform="translate(324.289847 77.288105) scale(0.08 -0.08)">
     <use xlink:href="#DejaVuSans-31"/>
     <use xlink:href="#DejaVuSans-33" transform="translate(63.623047 0)"/>
     <use xlink:href="#DejaVuSans-38" transform="translate(127.246094 0)"/>
    </g>
   </g>
   <g id="text_59">
    <!-- 112 -->
    <g transform="translate(339.956412 132.899705) scale(0.08 -0.08)">
     <use xlink:href="#DejaVuSans-31"/>
     <use xlink:href="#DejaVuSans-31" transform="translate(63.623047 0)"/>
     <use xlink:href="#DejaVuSans-32" transform="translate(127.246094 0)"/>
    </g>
   </g>
   <g id="text_60">
    <!-- 142 -->
    <g transform="translate(355.622977 68.732475) scale(0.08 -0.08)">
     <use xlink:href="#DejaVuSans-31"/>
     <use xlink:href="#DejaVuSans-34" transform="translate(63.623047 0)"/>
     <use xlink:href="#DejaVuSans-32" transform="translate(127.246094 0)"/>
    </g>
   </g>
   <g id="text_61">
    <!-- 106 -->
    <g transform="translate(371.289542 145.733151) scale(0.08 -0.08)">
     <use xlink:href="#DejaVuSans-31"/>
     <use xlink:href="#DejaVuSans-30" transform="translate(63.623047 0)"/>
     <use xlink:href="#DejaVuSans-36" transform="translate(127.246094 0)"/>
    </g>
   </g>
   <g id="text_62">
    <!-- 114 -->
    <g transform="translate(386.956107 128.621889) scale(0.08 -0.08)">
     <use xlink:href="#DejaVuSans-31"/>
     <use xlink:href="#DejaVuSans-31" transform="translate(63.623047 0)"/>
     <use xlink:href="#DejaVuSans-34" transform="translate(127.246094 0)"/>
    </g>
   </g>
   <g id="text_63">
    <!-- 146 -->
    <g transform="translate(402.622672 60.176844) scale(0.08 -0.08)">
     <use xlink:href="#DejaVuSans-31"/>
     <use xlink:href="#DejaVuSans-34" transform="translate(63.623047 0)"/>
     <use xlink:href="#DejaVuSans-36" transform="translate(127.246094 0)"/>
    </g>
   </g>
   <g id="text_64">
    <!-- 112 -->
    <g transform="translate(418.289237 132.899705) scale(0.08 -0.08)">
     <use xlink:href="#DejaVuSans-31"/>
     <use xlink:href="#DejaVuSans-31" transform="translate(63.623047 0)"/>
     <use xlink:href="#DejaVuSans-32" transform="translate(127.246094 0)"/>
    </g>
   </g>
   <g id="text_65">
    <!-- 145 -->
    <g transform="translate(433.955802 62.315752) scale(0.08 -0.08)">
     <use xlink:href="#DejaVuSans-31"/>
     <use xlink:href="#DejaVuSans-34" transform="translate(63.623047 0)"/>
     <use xlink:href="#DejaVuSans-35" transform="translate(127.246094 0)"/>
    </g>
   </g>
   <g id="text_66">
    <!-- 100 -->
    <g transform="translate(449.622367 158.566597) scale(0.08 -0.08)">
     <use xlink:href="#DejaVuSans-31"/>
     <use xlink:href="#DejaVuSans-30" transform="translate(63.623047 0)"/>
     <use xlink:href="#DejaVuSans-30" transform="translate(127.246094 0)"/>
    </g>
   </g>
   <g id="text_67">
    <!-- 118 -->
    <g transform="translate(465.288932 120.066259) scale(0.08 -0.08)">
     <use xlink:href="#DejaVuSans-31"/>
     <use xlink:href="#DejaVuSans-31" transform="translate(63.623047 0)"/>
     <use xlink:href="#DejaVuSans-38" transform="translate(127.246094 0)"/>
    </g>
   </g>
   <g id="text_68">
    <!-- 104 -->
    <g transform="translate(480.955497 150.010966) scale(0.08 -0.08)">
     <use xlink:href="#DejaVuSans-31"/>
     <use xlink:href="#DejaVuSans-30" transform="translate(63.623047 0)"/>
     <use xlink:href="#DejaVuSans-34" transform="translate(127.246094 0)"/>
    </g>
   </g>
   <g id="text_69">
    <!-- 117 -->
    <g transform="translate(496.622062 122.205166) scale(0.08 -0.08)">
     <use xlink:href="#DejaVuSans-31"/>
     <use xlink:href="#DejaVuSans-31" transform="translate(63.623047 0)"/>
     <use xlink:href="#DejaVuSans-37" transform="translate(127.246094 0)"/>
    </g>
   </g>
   <g id="text_70">
    <!-- 130 -->
    <g transform="translate(512.288627 94.399367) scale(0.08 -0.08)">
     <use xlink:href="#DejaVuSans-31"/>
     <use xlink:href="#DejaVuSans-33" transform="translate(63.623047 0)"/>
     <use xlink:href="#DejaVuSans-30" transform="translate(127.246094 0)"/>
    </g>
   </g>
   <g id="text_71">
    <!-- 115 -->
    <g transform="translate(527.955192 126.482982) scale(0.08 -0.08)">
     <use xlink:href="#DejaVuSans-31"/>
     <use xlink:href="#DejaVuSans-31" transform="translate(63.623047 0)"/>
     <use xlink:href="#DejaVuSans-35" transform="translate(127.246094 0)"/>
    </g>
   </g>
   <g id="text_72">
    <!-- 6G-Bench: Questions per Task -->
    <g transform="translate(218.67625 19.8) scale(0.12 -0.12)">
     <defs>
      <path id="DejaVuSans-47" d="M 3809 666 
L 3809 1919 
L 2778 1919 
L 2778 2438 
L 4434 2438 
L 4434 434 
Q 4069 175 3628 42 
Q 3188 -91 2688 -91 
Q 1594 -91 976 548 
Q 359 1188 359 2328 
Q 359 3472 976 4111 
Q 1594 4750 2688 4750 
Q 3144 4750 3555 4637 
Q 3966 4525 4313 4306 
L 4313 3634 
Q 3963 3931 3569 4081 
Q 3175 4231 2741 4231 
Q 1884 4231 1454 3753 
Q 1025 3275 1025 2328 
Q 1025 1384 1454 906 
Q 1884 428 2741 428 
Q 3075 428 3337 486 
Q 3600 544 3809 666 
z
" transform="scale(0.015625)"/>
      <path id="DejaVuSans-2d" d="M 313 2009 
L 1997 2009 
L 1997 1497 
L 313 1497 
L 313 2009 
z
" transform="scale(0.015625)"/>
      <path id="DejaVuSans-42" d="M 1259 2228 
L 1259 519 
L 2272 519 
Q 2781 519 3026 730 
Q 3272 941 3272 1375 
Q 3272 1813 3026 2020 
Q 2781 2228 2272 2228 
L 1259 2228 
z
M 1259 4147 
L 1259 2741 
L 2194 2741 
Q 2656 2741 2882 2914 
Q 3109 3088 3109 3444 
Q 3109 3797 2882 3972 
Q 2656 4147 2194 4147 
L 1259 4147 
z
M 628 4666 
L 2241 4666 
Q 2963 4666 3353 4366 
Q 3744 4066 3744 3513 
Q 3744 3084 3544 2831 
Q 3344 2578 2956 2516 
Q 3422 2416 3680 2098 
Q 3938 1781 3938 1306 
Q 3938 681 3513 340 
Q 3088 0 2303 0 
L 628 0 
L 628 4666 
z
" transform="scale(0.015625)"/>
      <path id="DejaVuSans-63" d="M 3122 3366 
L 3122 2828 
Q 2878 2963 2633 3030 
Q 2388 3097 2138 3097 
Q 1578 3097 1268 2742 
Q 959 2388 959 1747 
Q 959 1106 1268 751 
Q 1578 397 2138 397 
Q 2388 397 2633 464 
Q 2878 531 3122 666 
L 3122 134 
Q 2881 22 2623 -34 
Q 2366 -91 2075 -91 
Q 1284 -91 818 406 
Q 353 903 353 1747 
Q 353 2603 823 3093 
Q 1294 3584 2113 3584 
Q 2378 3584 2631 3529 
Q 2884 3475 3122 3366 
z
" transform="scale(0.015625)"/>
      <path id="DejaVuSans-68" d="M 3513 2113 
L 3513 0 
L 2938 0 
L 2938 2094 
Q 2938 2591 2744 2837 
Q 2550 3084 2163 3084 
Q 1697 3084 1428 2787 
Q 1159 2491 1159 1978 
L 1159 0 
L 581 0 
L 581 4863 
L 1159 4863 
L 1159 2956 
Q 1366 3272 1645 3428 
Q 1925 3584 2291 3584 
Q 2894 3584 3203 3211 
Q 3513 2838 3513 2113 
z
" transform="scale(0.015625)"/>
      <path id="DejaVuSans-3a" d="M 750 794 
L 1409 794 
L 1409 0 
L 750 0 
L 750 794 
z
M 750 3309 
L 1409 3309 
L 1409 2516 
L 750 2516 
L 750 3309 
z
" transform="scale(0.015625)"/>
      <path id="DejaVuSans-70" d="M 1159 525 
L 1159 -1331 
L 581 -1331 
L 581 3500 
L 1159 3500 
L 1159 2969 
Q 1341 3281 1617 3432 
Q 1894 3584 2278 3584 
Q 2916 3584 3314 3078 
Q 3713 2572 3713 1747 
Q 3713 922 3314 415 
Q 2916 -91 2278 -91 
Q 1894 -91 1617 61 
Q 1341 213 1159 525 
z
M 3116 1747 
Q 3116 2381 2855 2742 
Q 2594 3103 2138 3103 
Q 1681 3103 1420 2742 
Q 1159 2381 1159 1747 
Q 1159 1113 1420 752 
Q 1681 391 2138 391 
Q 2594 391 2855 752 
Q 3116 1113 3116 1747 
z
" transform="scale(0.015625)"/>
     </defs>
     <use xlink:href="#DejaVuSans-36"/>
     <use xlink:href="#DejaVuSans-47" transform="translate(63.623047 0)"/>
     <use xlink:href="#DejaVuSans-2d" transform="translate(141.113281 0)"/>
     <use xlink:href="#DejaVuSans-42" transform="translate(173.572266 0)"/>
     <use xlink:href="#DejaVuSans-65" transform="translate(242.175781 0)"/>
     <use xlink:href="#DejaVuSans-6e" transform="translate(303.699219 0)"/>
     <use xlink:href="#DejaVuSans-63" transform="translate(367.078125 0)"/>
     <use xlink:href="#DejaVuSans-68" transform="translate(422.058594 0)"/>
     <use xlink:href="#DejaVuSans-3a" transform="translate(485.4375 0)"/>
     <use xlink:href="#DejaVuSans-20" transform="translate(519.128906 0)"/>
     <use xlink:href="#DejaVuSans-51" transform="translate(550.916016 0)"/>
     <use xlink:href="#DejaVuSans-75" transform="translate(629.626953 0)"/>
     <use xlink:href="#DejaVuSans-65" transform="translate(693.005859 0)"/>
     <use xlink:href="#DejaVuSans-73" transform="translate(754.529297 0)"/>
     <use xlink:href="#DejaVuSans-74" transform="translate(806.628906 0)"/>
     <use xlink:href="#DejaVuSans-69" transform="translate(845.837891 0)"/>
     <use xlink:href="#DejaVuSans-6f" transform="translate(873.621094 0)"/>
     <use xlink:href="#DejaVuSans-6e" transform="translate(934.802734 0)"/>
     <use xlink:href="#DejaVuSans-73" transform="translate(998.181641 0)"/>
     <use xlink:href="#DejaVuSans-20" transform="translate(1050.28125 0)"/>
     <use xlink:href="#DejaVuSans-70" transform="translate(1082.068359 0)"/>
     <use xlink:href="#DejaVuSans-65" transform="translate(1145.544922 0)"/>
     <use xlink:href="#DejaVuSans-72" transform="translate(1207.068359 0)"/>
     <use xlink:href="#DejaVuSans-20" transform="translate(1248.181641 0)"/>
     <use xlink:href="#DejaVuSans-54" transform="translate(1279.96875 0)"/>
     <use xlink:href="#DejaVuSans-61" transform="translate(1324.552734 0)"/>
     <use xlink:href="#DejaVuSans-73" transform="translate(1385.832031 0)"/>
     <use xlink:href="#DejaVuSans-6b" transform="translate(1437.931641 0)"/>
    </g>
   </g>
   <g id="legend_1">
    <g id="patch_35">
     <path d="M 333.125 374.398929 
L 559.6 374.398929 
Q 561.2 374.398929 561.2 372.798929 
L 561.2 301.208304 
Q 561.2 299.608304 559.6 299.608304 
L 333.125 299.608304 
Q 331.525 299.608304 331.525 301.208304 
L 331.525 372.798929 
Q 331.525 374.398929 333.125 374.398929 
z
" style="fill: #ffffff; opacity: 0.8; stroke: #cccccc; stroke-linejoin: miter"/>
    </g>
    <g id="text_73">
     <!-- Capability Category -->
     <g transform="translate(396.878125 310.406741) scale(0.1 -0.1)">
      <defs>
       <path id="DejaVuSans-43" d="M 4122 4306 
L 4122 3641 
Q 3803 3938 3442 4084 
Q 3081 4231 2675 4231 
Q 1875 4231 1450 3742 
Q 1025 3253 1025 2328 
Q 1025 1406 1450 917 
Q 1875 428 2675 428 
Q 3081 428 3442 575 
Q 3803 722 4122 1019 
L 4122 359 
Q 3791 134 3420 21 
Q 3050 -91 2638 -91 
Q 1578 -91 968 557 
Q 359 1206 359 2328 
Q 359 3453 968 4101 
Q 1578 4750 2638 4750 
Q 3056 4750 3426 4639 
Q 3797 4528 4122 4306 
z
" transform="scale(0.015625)"/>
       <path id="DejaVuSans-6c" d="M 603 4863 
L 1178 4863 
L 1178 0 
L 603 0 
L 603 4863 
z
" transform="scale(0.015625)"/>
       <path id="DejaVuSans-79" d="M 2059 -325 
Q 1816 -950 1584 -1140 
Q 1353 -1331 966 -1331 
L 506 -1331 
L 506 -850 
L 844 -850 
Q 1081 -850 1212 -737 
Q 1344 -625 1503 -206 
L 1606 56 
L 191 3500 
L 800 3500 
L 1894 763 
L 2988 3500 
L 3597 3500 
L 2059 -325 
z
" transform="scale(0.015625)"/>
       <path id="DejaVuSans-67" d="M 2906 1791 
Q 2906 2416 2648 2759 
Q 2391 3103 1925 3103 
Q 1463 3103 1205 2759 
Q 947 2416 947 1791 
Q 947 1169 1205 825 
Q 1463 481 1925 481 
Q 2391 481 2648 825 
Q 2906 1169 2906 1791 
z
M 3481 434 
Q 3481 -459 3084 -895 
Q 2688 -1331 1869 -1331 
Q 1566 -1331 1297 -1286 
Q 1028 -1241 775 -1147 
L 775 -588 
Q 1028 -725 1275 -790 
Q 1522 -856 1778 -856 
Q 2344 -856 2625 -561 
Q 2906 -266 2906 331 
L 2906 616 
Q 2728 306 2450 153 
Q 2172 0 1784 0 
Q 1141 0 747 490 
Q 353 981 353 1791 
Q 353 2603 747 3093 
Q 1141 3584 1784 3584 
Q 2172 3584 2450 3431 
Q 2728 3278 2906 2969 
L 2906 3500 
L 3481 3500 
L 3481 434 
z
" transform="scale(0.015625)"/>
      </defs>
      <use xlink:href="#DejaVuSans-43"/>
      <use xlink:href="#DejaVuSans-61" transform="translate(69.824219 0)"/>
      <use xlink:href="#DejaVuSans-70" transform="translate(131.103516 0)"/>
      <use xlink:href="#DejaVuSans-61" transform="translate(194.580078 0)"/>
      <use xlink:href="#DejaVuSans-62" transform="translate(255.859375 0)"/>
      <use xlink:href="#DejaVuSans-69" transform="translate(319.335938 0)"/>
      <use xlink:href="#DejaVuSans-6c" transform="translate(347.119141 0)"/>
      <use xlink:href="#DejaVuSans-69" transform="translate(374.902344 0)"/>
      <use xlink:href="#DejaVuSans-74" transform="translate(402.685547 0)"/>
      <use xlink:href="#DejaVuSans-79" transform="translate(441.894531 0)"/>
      <use xlink:href="#DejaVuSans-20" transform="translate(501.074219 0)"/>
      <use xlink:href="#DejaVuSans-43" transform="translate(532.861328 0)"/>
      <use xlink:href="#DejaVuSans-61" transform="translate(602.685547 0)"/>
      <use xlink:href="#DejaVuSans-74" transform="translate(663.964844 0)"/>
      <use xlink:href="#DejaVuSans-65" transform="translate(703.173828 0)"/>
      <use xlink:href="#DejaVuSans-67" transform="translate(764.697266 0)"/>
      <use xlink:href="#DejaVuSans-6f" transform="translate(828.173828 0)"/>
      <use xlink:href="#DejaVuSans-72" transform="translate(889.355469 0)"/>
      <use xlink:href="#DejaVuSans-79" transform="translate(930.46875 0)"/>
     </g>
    </g>
    <g id="patch_36">
     <path d="M 334.725 322.565179 
L 350.725 322.565179 
L 350.725 316.965179 
L 334.725 316.965179 
z
" style="fill: #1f77b4"/>
    </g>
    <g id="text_74">
     <!-- Intent &amp; Policy Reasoning -->
     <g transform="translate(357.125 322.565179) scale(0.08 -0.08)">
      <defs>
       <path id="DejaVuSans-26" d="M 1556 2509 
Q 1272 2256 1139 2004 
Q 1006 1753 1006 1478 
Q 1006 1022 1337 719 
Q 1669 416 2169 416 
Q 2466 416 2725 514 
Q 2984 613 3213 813 
L 1556 2509 
z
M 1997 2859 
L 3584 1234 
Q 3769 1513 3872 1830 
Q 3975 2147 3994 2503 
L 4575 2503 
Q 4538 2091 4375 1687 
Q 4213 1284 3922 891 
L 4794 0 
L 4006 0 
L 3559 459 
Q 3234 181 2878 45 
Q 2522 -91 2113 -91 
Q 1359 -91 881 339 
Q 403 769 403 1441 
Q 403 1841 612 2192 
Q 822 2544 1241 2853 
Q 1091 3050 1012 3245 
Q 934 3441 934 3628 
Q 934 4134 1281 4442 
Q 1628 4750 2203 4750 
Q 2463 4750 2720 4694 
Q 2978 4638 3244 4525 
L 3244 3956 
Q 2972 4103 2725 4179 
Q 2478 4256 2266 4256 
Q 1938 4256 1733 4082 
Q 1528 3909 1528 3634 
Q 1528 3475 1620 3314 
Q 1713 3153 1997 2859 
z
" transform="scale(0.015625)"/>
       <path id="DejaVuSans-50" d="M 1259 4147 
L 1259 2394 
L 2053 2394 
Q 2494 2394 2734 2622 
Q 2975 2850 2975 3272 
Q 2975 3691 2734 3919 
Q 2494 4147 2053 4147 
L 1259 4147 
z
M 628 4666 
L 2053 4666 
Q 2838 4666 3239 4311 
Q 3641 3956 3641 3272 
Q 3641 2581 3239 2228 
Q 2838 1875 2053 1875 
L 1259 1875 
L 1259 0 
L 628 0 
L 628 4666 
z
" transform="scale(0.015625)"/>
       <path id="DejaVuSans-52" d="M 2841 2188 
Q 3044 2119 3236 1894 
Q 3428 1669 3622 1275 
L 4263 0 
L 3584 0 
L 2988 1197 
Q 2756 1666 2539 1819 
Q 2322 1972 1947 1972 
L 1259 1972 
L 1259 0 
L 628 0 
L 628 4666 
L 2053 4666 
Q 2853 4666 3247 4331 
Q 3641 3997 3641 3322 
Q 3641 2881 3436 2590 
Q 3231 2300 2841 2188 
z
M 1259 4147 
L 1259 2491 
L 2053 2491 
Q 2509 2491 2742 2702 
Q 2975 2913 2975 3322 
Q 2975 3731 2742 3939 
Q 2509 4147 2053 4147 
L 1259 4147 
z
" transform="scale(0.015625)"/>
      </defs>
      <use xlink:href="#DejaVuSans-49"/>
      <use xlink:href="#DejaVuSans-6e" transform="translate(29.492188 0)"/>
      <use xlink:href="#DejaVuSans-74" transform="translate(92.871094 0)"/>
      <use xlink:href="#DejaVuSans-65" transform="translate(132.080078 0)"/>
      <use xlink:href="#DejaVuSans-6e" transform="translate(193.603516 0)"/>
      <use xlink:href="#DejaVuSans-74" transform="translate(256.982422 0)"/>
      <use xlink:href="#DejaVuSans-20" transform="translate(296.191406 0)"/>
      <use xlink:href="#DejaVuSans-26" transform="translate(327.978516 0)"/>
      <use xlink:href="#DejaVuSans-20" transform="translate(405.957031 0)"/>
      <use xlink:href="#DejaVuSans-50" transform="translate(437.744141 0)"/>
      <use xlink:href="#DejaVuSans-6f" transform="translate(494.421875 0)"/>
      <use xlink:href="#DejaVuSans-6c" transform="translate(555.603516 0)"/>
      <use xlink:href="#DejaVuSans-69" transform="translate(583.386719 0)"/>
      <use xlink:href="#DejaVuSans-63" transform="translate(611.169922 0)"/>
      <use xlink:href="#DejaVuSans-79" transform="translate(666.150391 0)"/>
      <use xlink:href="#DejaVuSans-20" transform="translate(725.330078 0)"/>
      <use xlink:href="#DejaVuSans-52" transform="translate(757.117188 0)"/>
      <use xlink:href="#DejaVuSans-65" transform="translate(822.099609 0)"/>
      <use xlink:href="#DejaVuSans-61" transform="translate(883.623047 0)"/>
      <use xlink:href="#DejaVuSans-73" transform="translate(944.902344 0)"/>
      <use xlink:href="#DejaVuSans-6f" transform="translate(997.001953 0)"/>
      <use xlink:href="#DejaVuSans-6e" transform="translate(1058.183594 0)"/>
      <use xlink:href="#DejaVuSans-69" transform="translate(1121.5625 0)"/>
      <use xlink:href="#DejaVuSans-6e" transform="translate(1149.345703 0)"/>
      <use xlink:href="#DejaVuSans-67" transform="translate(1212.724609 0)"/>
     </g>
    </g>
    <g id="patch_37">
     <path d="M 334.725 334.307679 
L 350.725 334.307679 
L 350.725 328.707679 
L 334.725 328.707679 
z
" style="fill: #ff7f0e"/>
    </g>
    <g id="text_75">
     <!-- Network Slicing &amp; Resource Management -->
     <g transform="translate(357.125 334.307679) scale(0.08 -0.08)">
      <defs>
       <path id="DejaVuSans-77" d="M 269 3500 
L 844 3500 
L 1563 769 
L 2278 3500 
L 2956 3500 
L 3675 769 
L 4391 3500 
L 4966 3500 
L 4050 0 
L 3372 0 
L 2619 2869 
L 1863 0 
L 1184 0 
L 269 3500 
z
" transform="scale(0.015625)"/>
       <path id="DejaVuSans-53" d="M 3425 4513 
L 3425 3897 
Q 3066 4069 2747 4153 
Q 2428 4238 2131 4238 
Q 1616 4238 1336 4038 
Q 1056 3838 1056 3469 
Q 1056 3159 1242 3001 
Q 1428 2844 1947 2747 
L 2328 2669 
Q 3034 2534 3370 2195 
Q 3706 1856 3706 1288 
Q 3706 609 3251 259 
Q 2797 -91 1919 -91 
Q 1588 -91 1214 -16 
Q 841 59 441 206 
L 441 856 
Q 825 641 1194 531 
Q 1563 422 1919 422 
Q 2459 422 2753 634 
Q 3047 847 3047 1241 
Q 3047 1584 2836 1778 
Q 2625 1972 2144 2069 
L 1759 2144 
Q 1053 2284 737 2584 
Q 422 2884 422 3419 
Q 422 4038 858 4394 
Q 1294 4750 2059 4750 
Q 2388 4750 2728 4690 
Q 3069 4631 3425 4513 
z
" transform="scale(0.015625)"/>
       <path id="DejaVuSans-4d" d="M 628 4666 
L 1569 4666 
L 2759 1491 
L 3956 4666 
L 4897 4666 
L 4897 0 
L 4281 0 
L 4281 4097 
L 3078 897 
L 2444 897 
L 1241 4097 
L 1241 0 
L 628 0 
L 628 4666 
z
" transform="scale(0.015625)"/>
      </defs>
      <use xlink:href="#DejaVuSans-4e"/>
      <use xlink:href="#DejaVuSans-65" transform="translate(74.804688 0)"/>
      <use xlink:href="#DejaVuSans-74" transform="translate(136.328125 0)"/>
      <use xlink:href="#DejaVuSans-77" transform="translate(175.537109 0)"/>
      <use xlink:href="#DejaVuSans-6f" transform="translate(257.324219 0)"/>
      <use xlink:href="#DejaVuSans-72" transform="translate(318.505859 0)"/>
      <use xlink:href="#DejaVuSans-6b" transform="translate(359.619141 0)"/>
      <use xlink:href="#DejaVuSans-20" transform="translate(417.529297 0)"/>
      <use xlink:href="#DejaVuSans-53" transform="translate(449.316406 0)"/>
      <use xlink:href="#DejaVuSans-6c" transform="translate(512.792969 0)"/>
      <use xlink:href="#DejaVuSans-69" transform="translate(540.576172 0)"/>
      <use xlink:href="#DejaVuSans-63" transform="translate(568.359375 0)"/>
      <use xlink:href="#DejaVuSans-69" transform="translate(623.339844 0)"/>
      <use xlink:href="#DejaVuSans-6e" transform="translate(651.123047 0)"/>
      <use xlink:href="#DejaVuSans-67" transform="translate(714.501953 0)"/>
      <use xlink:href="#DejaVuSans-20" transform="translate(777.978516 0)"/>
      <use xlink:href="#DejaVuSans-26" transform="translate(809.765625 0)"/>
      <use xlink:href="#DejaVuSans-20" transform="translate(887.744141 0)"/>
      <use xlink:href="#DejaVuSans-52" transform="translate(919.53125 0)"/>
      <use xlink:href="#DejaVuSans-65" transform="translate(984.513672 0)"/>
      <use xlink:href="#DejaVuSans-73" transform="translate(1046.037109 0)"/>
      <use xlink:href="#DejaVuSans-6f" transform="translate(1098.136719 0)"/>
      <use xlink:href="#DejaVuSans-75" transform="translate(1159.318359 0)"/>
      <use xlink:href="#DejaVuSans-72" transform="translate(1222.697266 0)"/>
      <use xlink:href="#DejaVuSans-63" transform="translate(1261.560547 0)"/>
      <use xlink:href="#DejaVuSans-65" transform="translate(1316.541016 0)"/>
      <use xlink:href="#DejaVuSans-20" transform="translate(1378.064453 0)"/>
      <use xlink:href="#DejaVuSans-4d" transform="translate(1409.851562 0)"/>
      <use xlink:href="#DejaVuSans-61" transform="translate(1496.130859 0)"/>
      <use xlink:href="#DejaVuSans-6e" transform="translate(1557.410156 0)"/>
      <use xlink:href="#DejaVuSans-61" transform="translate(1620.789062 0)"/>
      <use xlink:href="#DejaVuSans-67" transform="translate(1682.068359 0)"/>
      <use xlink:href="#DejaVuSans-65" transform="translate(1745.544922 0)"/>
      <use xlink:href="#DejaVuSans-6d" transform="translate(1807.068359 0)"/>
      <use xlink:href="#DejaVuSans-65" transform="translate(1904.480469 0)"/>
      <use xlink:href="#DejaVuSans-6e" transform="translate(1966.003906 0)"/>
      <use xlink:href="#DejaVuSans-74" transform="translate(2029.382812 0)"/>
     </g>
    </g>
    <g id="patch_38">
     <path d="M 334.725 346.050179 
L 350.725 346.050179 
L 350.725 340.450179 
L 334.725 340.450179 
z
" style="fill: #d62728"/>
    </g>
    <g id="text_76">
     <!-- Trust, Security &amp; SLA Awareness -->
     <g transform="translate(357.125 346.050179) scale(0.08 -0.08)">
      <defs>
       <path id="DejaVuSans-2c" d="M 750 794 
L 1409 794 
L 1409 256 
L 897 -744 
L 494 -744 
L 750 256 
L 750 794 
z
" transform="scale(0.015625)"/>
       <path id="DejaVuSans-4c" d="M 628 4666 
L 1259 4666 
L 1259 531 
L 3531 531 
L 3531 0 
L 628 0 
L 628 4666 
z
" transform="scale(0.015625)"/>
       <path id="DejaVuSans-41" d="M 2188 4044 
L 1331 1722 
L 3047 1722 
L 2188 4044 
z
M 1831 4666 
L 2547 4666 
L 4325 0 
L 3669 0 
L 3244 1197 
L 1141 1197 
L 716 0 
L 50 0 
L 1831 4666 
z
" transform="scale(0.015625)"/>
      </defs>
      <use xlink:href="#DejaVuSans-54"/>
      <use xlink:href="#DejaVuSans-72" transform="translate(46.333984 0)"/>
      <use xlink:href="#DejaVuSans-75" transform="translate(87.447266 0)"/>
      <use xlink:href="#DejaVuSans-73" transform="translate(150.826172 0)"/>
      <use xlink:href="#DejaVuSans-74" transform="translate(202.925781 0)"/>
      <use xlink:href="#DejaVuSans-2c" transform="translate(242.134766 0)"/>
      <use xlink:href="#DejaVuSans-20" transform="translate(273.921875 0)"/>
      <use xlink:href="#DejaVuSans-53" transform="translate(305.708984 0)"/>
      <use xlink:href="#DejaVuSans-65" transform="translate(369.185547 0)"/>
      <use xlink:href="#DejaVuSans-63" transform="translate(430.708984 0)"/>
      <use xlink:href="#DejaVuSans-75" transform="translate(485.689453 0)"/>
      <use xlink:href="#DejaVuSans-72" transform="translate(549.068359 0)"/>
      <use xlink:href="#DejaVuSans-69" transform="translate(590.181641 0)"/>
      <use xlink:href="#DejaVuSans-74" transform="translate(617.964844 0)"/>
      <use xlink:href="#DejaVuSans-79" transform="translate(657.173828 0)"/>
      <use xlink:href="#DejaVuSans-20" transform="translate(716.353516 0)"/>
      <use xlink:href="#DejaVuSans-26" transform="translate(748.140625 0)"/>
      <use xlink:href="#DejaVuSans-20" transform="translate(826.119141 0)"/>
      <use xlink:href="#DejaVuSans-53" transform="translate(857.90625 0)"/>
      <use xlink:href="#DejaVuSans-4c" transform="translate(921.382812 0)"/>
      <use xlink:href="#DejaVuSans-41" transform="translate(979.345703 0)"/>
      <use xlink:href="#DejaVuSans-20" transform="translate(1047.753906 0)"/>
      <use xlink:href="#DejaVuSans-41" transform="translate(1079.541016 0)"/>
      <use xlink:href="#DejaVuSans-77" transform="translate(1143.949219 0)"/>
      <use xlink:href="#DejaVuSans-61" transform="translate(1225.736328 0)"/>
      <use xlink:href="#DejaVuSans-72" transform="translate(1287.015625 0)"/>
      <use xlink:href="#DejaVuSans-65" transform="translate(1325.878906 0)"/>
      <use xlink:href="#DejaVuSans-6e" transform="translate(1387.402344 0)"/>
      <use xlink:href="#DejaVuSans-65" transform="translate(1450.78125 0)"/>
      <use xlink:href="#DejaVuSans-73" transform="translate(1512.304688 0)"/>
      <use xlink:href="#DejaVuSans-73" transform="translate(1564.404297 0)"/>
     </g>
    </g>
    <g id="patch_39">
     <path d="M 334.725 357.792679 
L 350.725 357.792679 
L 350.725 352.192679 
L 334.725 352.192679 
z
" style="fill: #2ca02c"/>
    </g>
    <g id="text_77">
     <!-- AI-Native Networking &amp; Agentic Control -->
     <g transform="translate(357.125 357.792679) scale(0.08 -0.08)">
      <defs>
       <path id="DejaVuSans-76" d="M 191 3500 
L 800 3500 
L 1894 563 
L 2988 3500 
L 3597 3500 
L 2284 0 
L 1503 0 
L 191 3500 
z
" transform="scale(0.015625)"/>
      </defs>
      <use xlink:href="#DejaVuSans-41"/>
      <use xlink:href="#DejaVuSans-49" transform="translate(68.408203 0)"/>
      <use xlink:href="#DejaVuSans-2d" transform="translate(97.900391 0)"/>
      <use xlink:href="#DejaVuSans-4e" transform="translate(133.984375 0)"/>
      <use xlink:href="#DejaVuSans-61" transform="translate(208.789062 0)"/>
      <use xlink:href="#DejaVuSans-74" transform="translate(270.068359 0)"/>
      <use xlink:href="#DejaVuSans-69" transform="translate(309.277344 0)"/>
      <use xlink:href="#DejaVuSans-76" transform="translate(337.060547 0)"/>
      <use xlink:href="#DejaVuSans-65" transform="translate(396.240234 0)"/>
      <use xlink:href="#DejaVuSans-20" transform="translate(457.763672 0)"/>
      <use xlink:href="#DejaVuSans-4e" transform="translate(489.550781 0)"/>
      <use xlink:href="#DejaVuSans-65" transform="translate(564.355469 0)"/>
      <use xlink:href="#DejaVuSans-74" transform="translate(625.878906 0)"/>
      <use xlink:href="#DejaVuSans-77" transform="translate(665.087891 0)"/>
      <use xlink:href="#DejaVuSans-6f" transform="translate(746.875 0)"/>
      <use xlink:href="#DejaVuSans-72" transform="translate(808.056641 0)"/>
      <use xlink:href="#DejaVuSans-6b" transform="translate(849.169922 0)"/>
      <use xlink:href="#DejaVuSans-69" transform="translate(907.080078 0)"/>
      <use xlink:href="#DejaVuSans-6e" transform="translate(934.863281 0)"/>
      <use xlink:href="#DejaVuSans-67" transform="translate(998.242188 0)"/>
      <use xlink:href="#DejaVuSans-20" transform="translate(1061.71875 0)"/>
      <use xlink:href="#DejaVuSans-26" transform="translate(1093.505859 0)"/>
      <use xlink:href="#DejaVuSans-20" transform="translate(1171.484375 0)"/>
      <use xlink:href="#DejaVuSans-41" transform="translate(1203.271484 0)"/>
      <use xlink:href="#DejaVuSans-67" transform="translate(1271.679688 0)"/>
      <use xlink:href="#DejaVuSans-65" transform="translate(1335.15625 0)"/>
      <use xlink:href="#DejaVuSans-6e" transform="translate(1396.679688 0)"/>
      <use xlink:href="#DejaVuSans-74" transform="translate(1460.058594 0)"/>
      <use xlink:href="#DejaVuSans-69" transform="translate(1499.267578 0)"/>
      <use xlink:href="#DejaVuSans-63" transform="translate(1527.050781 0)"/>
      <use xlink:href="#DejaVuSans-20" transform="translate(1582.03125 0)"/>
      <use xlink:href="#DejaVuSans-43" transform="translate(1613.818359 0)"/>
      <use xlink:href="#DejaVuSans-6f" transform="translate(1683.642578 0)"/>
      <use xlink:href="#DejaVuSans-6e" transform="translate(1744.824219 0)"/>
      <use xlink:href="#DejaVuSans-74" transform="translate(1808.203125 0)"/>
      <use xlink:href="#DejaVuSans-72" transform="translate(1847.412109 0)"/>
      <use xlink:href="#DejaVuSans-6f" transform="translate(1886.275391 0)"/>
      <use xlink:href="#DejaVuSans-6c" transform="translate(1947.457031 0)"/>
     </g>
    </g>
    <g id="patch_40">
     <path d="M 334.725 369.535179 
L 350.725 369.535179 
L 350.725 363.935179 
L 334.725 363.935179 
z
" style="fill: #9467bd"/>
    </g>
    <g id="text_78">
     <!-- Distributed Intelligence &amp; Emerging 6G Use Cases -->
     <g transform="translate(357.125 369.535179) scale(0.08 -0.08)">
      <defs>
       <path id="DejaVuSans-64" d="M 2906 2969 
L 2906 4863 
L 3481 4863 
L 3481 0 
L 2906 0 
L 2906 525 
Q 2725 213 2448 61 
Q 2172 -91 1784 -91 
Q 1150 -91 751 415 
Q 353 922 353 1747 
Q 353 2572 751 3078 
Q 1150 3584 1784 3584 
Q 2172 3584 2448 3432 
Q 2725 3281 2906 2969 
z
M 947 1747 
Q 947 1113 1208 752 
Q 1469 391 1925 391 
Q 2381 391 2643 752 
Q 2906 1113 2906 1747 
Q 2906 2381 2643 2742 
Q 2381 3103 1925 3103 
Q 1469 3103 1208 2742 
Q 947 2381 947 1747 
z
" transform="scale(0.015625)"/>
       <path id="DejaVuSans-45" d="M 628 4666 
L 3578 4666 
L 3578 4134 
L 1259 4134 
L 1259 2753 
L 3481 2753 
L 3481 2222 
L 1259 2222 
L 1259 531 
L 3634 531 
L 3634 0 
L 628 0 
L 628 4666 
z
" transform="scale(0.015625)"/>
       <path id="DejaVuSans-55" d="M 556 4666 
L 1191 4666 
L 1191 1831 
Q 1191 1081 1462 751 
Q 1734 422 2344 422 
Q 2950 422 3222 751 
Q 3494 1081 3494 1831 
L 3494 4666 
L 4128 4666 
L 4128 1753 
Q 4128 841 3676 375 
Q 3225 -91 2344 -91 
Q 1459 -91 1007 375 
Q 556 841 556 1753 
L 556 4666 
z
" transform="scale(0.015625)"/>
      </defs>
      <use xlink:href="#DejaVuSans-44"/>
      <use xlink:href="#DejaVuSans-69" transform="translate(77.001953 0)"/>
      <use xlink:href="#DejaVuSans-73" transform="translate(104.785156 0)"/>
      <use xlink:href="#DejaVuSans-74" transform="translate(156.884766 0)"/>
      <use xlink:href="#DejaVuSans-72" transform="translate(196.09375 0)"/>
      <use xlink:href="#DejaVuSans-69" transform="translate(237.207031 0)"/>
      <use xlink:href="#DejaVuSans-62" transform="translate(264.990234 0)"/>
      <use xlink:href="#DejaVuSans-75" transform="translate(328.466797 0)"/>
      <use xlink:href="#DejaVuSans-74" transform="translate(391.845703 0)"/>
      <use xlink:href="#DejaVuSans-65" transform="translate(431.054688 0)"/>
      <use xlink:href="#DejaVuSans-64" transform="translate(492.578125 0)"/>
      <use xlink:href="#DejaVuSans-20" transform="translate(556.054688 0)"/>
      <use xlink:href="#DejaVuSans-49" transform="translate(587.841797 0)"/>
      <use xlink:href="#DejaVuSans-6e" transform="translate(617.333984 0)"/>
      <use xlink:href="#DejaVuSans-74" transform="translate(680.712891 0)"/>
      <use xlink:href="#DejaVuSans-65" transform="translate(719.921875 0)"/>
      <use xlink:href="#DejaVuSans-6c" transform="translate(781.445312 0)"/>
      <use xlink:href="#DejaVuSans-6c" transform="translate(809.228516 0)"/>
      <use xlink:href="#DejaVuSans-69" transform="translate(837.011719 0)"/>
      <use xlink:href="#DejaVuSans-67" transform="translate(864.794922 0)"/>
      <use xlink:href="#DejaVuSans-65" transform="translate(928.271484 0)"/>
      <use xlink:href="#DejaVuSans-6e" transform="translate(989.794922 0)"/>
      <use xlink:href="#DejaVuSans-63" transform="translate(1053.173828 0)"/>
      <use xlink:href="#DejaVuSans-65" transform="translate(1108.154297 0)"/>
      <use xlink:href="#DejaVuSans-20" transform="translate(1169.677734 0)"/>
      <use xlink:href="#DejaVuSans-26" transform="translate(1201.464844 0)"/>
      <use xlink:href="#DejaVuSans-20" transform="translate(1279.443359 0)"/>
      <use xlink:href="#DejaVuSans-45" transform="translate(1311.230469 0)"/>
      <use xlink:href="#DejaVuSans-6d" transform="translate(1374.414062 0)"/>
      <use xlink:href="#DejaVuSans-65" transform="translate(1471.826172 0)"/>
      <use xlink:href="#DejaVuSans-72" transform="translate(1533.349609 0)"/>
      <use xlink:href="#DejaVuSans-67" transform="translate(1572.712891 0)"/>
      <use xlink:href="#DejaVuSans-69" transform="translate(1636.189453 0)"/>
      <use xlink:href="#DejaVuSans-6e" transform="translate(1663.972656 0)"/>
      <use xlink:href="#DejaVuSans-67" transform="translate(1727.351562 0)"/>
      <use xlink:href="#DejaVuSans-20" transform="translate(1790.828125 0)"/>
      <use xlink:href="#DejaVuSans-36" transform="translate(1822.615234 0)"/>
      <use xlink:href="#DejaVuSans-47" transform="translate(1886.238281 0)"/>
      <use xlink:href="#DejaVuSans-20" transform="translate(1963.728516 0)"/>
      <use xlink:href="#DejaVuSans-55" transform="translate(1995.515625 0)"/>
      <use xlink:href="#DejaVuSans-73" transform="translate(2068.708984 0)"/>
      <use xlink:href="#DejaVuSans-65" transform="translate(2120.808594 0)"/>
      <use xlink:href="#DejaVuSans-20" transform="translate(2182.332031 0)"/>
      <use xlink:href="#DejaVuSans-43" transform="translate(2214.119141 0)"/>
      <use xlink:href="#DejaVuSans-61" transform="translate(2283.943359 0)"/>
      <use xlink:href="#DejaVuSans-73" transform="translate(2345.222656 0)"/>
      <use xlink:href="#DejaVuSans-65" transform="translate(2397.322266 0)"/>
      <use xlink:href="#DejaVuSans-73" transform="translate(2458.845703 0)"/>
     </g>
    </g>
   </g>
  </g>
 </g>
 <defs>
  <clipPath id="pc96a7de3b1">
   <rect x="51.65" y="25.8" width="513.55" height="352.598929"/>
  </clipPath>
 </defs>
</svg>
